<svg width="36" height="36" viewBox="0 0 36 36" fill="none" xmlns="http://www.w3.org/2000/svg">
<path d="M34.5116 7.34908L18.1991 1.16158C18.0709 1.11264 17.9291 1.11264 17.8009 1.16158L1.48837 7.34908C1.38158 7.3895 1.28962 7.46146 1.22471 7.55541C1.15981 7.64935 1.12503 7.76083 1.125 7.87501V28.125C1.12497 28.2388 1.15947 28.35 1.22395 28.4438C1.28842 28.5376 1.37984 28.6096 1.48613 28.6504L17.7986 34.9166C17.9278 34.9659 18.0705 34.9659 18.1997 34.9166L34.5122 28.7066C34.6188 28.6662 34.7106 28.5942 34.7754 28.5004C34.8402 28.4066 34.8749 28.2953 34.875 28.1813V7.87501C34.875 7.76083 34.8402 7.64935 34.7753 7.55541C34.7104 7.46146 34.6184 7.3895 34.5116 7.34908ZM18 2.28883L32.7268 7.87501L18 13.4612L13.5264 11.7641L20.5279 9.11251C20.6346 9.07203 20.7265 9.00004 20.7913 8.9061C20.8562 8.81216 20.8909 8.70072 20.8909 8.58658C20.8909 8.47243 20.8562 8.36099 20.7913 8.26705C20.7265 8.17311 20.6346 8.10112 20.5279 8.06064L16.3316 6.46876C16.2031 6.42006 16.0613 6.42006 15.9328 6.46876L7.74731 9.57208L3.27319 7.87501L18 2.28883ZM8.4375 11.0368L11.25 12.1056V20.5071L8.4375 19.4299V11.0368ZM9.333 10.1734L16.1325 7.59376L18.7419 8.58377L11.9402 11.1623L9.333 10.1734ZM2.25 8.69008L7.3125 10.6105V19.8169C7.31251 19.9308 7.3471 20.042 7.41168 20.1358C7.47626 20.2296 7.5678 20.3016 7.67419 20.3423L11.6117 21.8498C11.6969 21.8823 11.7887 21.8937 11.8792 21.8829C11.9698 21.872 12.0563 21.8394 12.1314 21.7877C12.2065 21.736 12.2679 21.6668 12.3104 21.5861C12.3528 21.5054 12.375 21.4156 12.375 21.3244V12.5303L17.4375 14.4506V33.5723L2.25 27.7386V8.69008ZM18.5625 33.5751V14.4501L33.75 8.69008V27.7937L18.5625 33.5751Z" fill="#C4C4C4"/>
<path d="M23.9871 28.1357L20.6042 29.4232C20.4812 29.4699 20.3784 29.5583 20.3137 29.6729C20.2491 29.7876 20.2267 29.9212 20.2504 30.0507C20.2742 30.1801 20.3426 30.2972 20.4437 30.3814C20.5448 30.4656 20.6723 30.5117 20.8039 30.5117C20.8724 30.5118 20.9403 30.4992 21.0042 30.4746L24.387 29.187C24.4573 29.1617 24.5219 29.1226 24.577 29.0721C24.632 29.0216 24.6765 28.9606 24.7077 28.8927C24.7389 28.8248 24.7563 28.7514 24.7588 28.6767C24.7613 28.602 24.7489 28.5276 24.7224 28.4577C24.6958 28.3879 24.6556 28.324 24.604 28.2699C24.5525 28.2158 24.4907 28.1724 24.4223 28.1425C24.3538 28.1125 24.2801 28.0964 24.2054 28.0953C24.1306 28.0941 24.0564 28.1079 23.9871 28.1357Z" fill="#C4C4C4"/>
<path d="M27.3586 26.8521L26.2263 27.283C26.1032 27.3297 26.0004 27.418 25.9358 27.5327C25.8712 27.6473 25.8488 27.781 25.8725 27.9104C25.8963 28.0399 25.9647 28.1569 26.0658 28.2411C26.1669 28.3254 26.2944 28.3715 26.426 28.3714C26.4944 28.3715 26.5623 28.3589 26.6262 28.3343L27.7585 27.9034C27.8289 27.8781 27.8934 27.8391 27.9485 27.7885C28.0035 27.738 28.048 27.677 28.0792 27.6091C28.1104 27.5412 28.1278 27.4678 28.1303 27.3931C28.1328 27.3184 28.1204 27.244 28.0939 27.1741C28.0673 27.1043 28.0271 27.0404 27.9755 26.9863C27.924 26.9322 27.8622 26.8889 27.7938 26.8589C27.7253 26.8289 27.6516 26.8129 27.5769 26.8117C27.5022 26.8106 27.428 26.8243 27.3586 26.8521Z" fill="#C4C4C4"/>
<path d="M23.9871 25.8857L20.6042 27.1732C20.4812 27.2199 20.3784 27.3083 20.3137 27.4229C20.2491 27.5376 20.2267 27.6712 20.2504 27.8007C20.2742 27.9301 20.3426 28.0472 20.4437 28.1314C20.5448 28.2156 20.6723 28.2617 20.8039 28.2617C20.8724 28.2618 20.9403 28.2492 21.0042 28.2246L24.387 26.937C24.4573 26.9117 24.5219 26.8726 24.577 26.8221C24.632 26.7716 24.6765 26.7106 24.7077 26.6427C24.7389 26.5748 24.7563 26.5014 24.7588 26.4267C24.7613 26.352 24.7489 26.2776 24.7224 26.2077C24.6958 26.1379 24.6556 26.074 24.604 26.0199C24.5525 25.9658 24.4907 25.9224 24.4223 25.8925C24.3538 25.8625 24.2801 25.8464 24.2054 25.8453C24.1306 25.8441 24.0564 25.8579 23.9871 25.8857Z" fill="#C4C4C4"/>
<path d="M27.3586 24.6021L26.2263 25.033C26.1032 25.0797 26.0004 25.168 25.9358 25.2827C25.8712 25.3973 25.8488 25.531 25.8725 25.6604C25.8963 25.7899 25.9647 25.9069 26.0658 25.9911C26.1669 26.0754 26.2944 26.1215 26.426 26.1214C26.4944 26.1215 26.5623 26.1089 26.6262 26.0843L27.7585 25.6534C27.8289 25.6281 27.8934 25.5891 27.9485 25.5385C28.0035 25.488 28.048 25.427 28.0792 25.3591C28.1104 25.2912 28.1278 25.2178 28.1303 25.1431C28.1328 25.0684 28.1204 24.994 28.0939 24.9241C28.0673 24.8543 28.0271 24.7904 27.9755 24.7363C27.924 24.6822 27.8622 24.6389 27.7938 24.6089C27.7253 24.5789 27.6516 24.5629 27.5769 24.5617C27.5022 24.5606 27.428 24.5743 27.3586 24.6021Z" fill="#C4C4C4"/>
<path d="M23.9871 23.6357L20.6042 24.9233C20.4812 24.9699 20.3784 25.0583 20.3137 25.1729C20.2491 25.2876 20.2267 25.4212 20.2504 25.5507C20.2742 25.6801 20.3426 25.7972 20.4437 25.8814C20.5448 25.9656 20.6723 26.0117 20.8039 26.0117C20.8724 26.0118 20.9403 25.9992 21.0042 25.9746L24.387 24.687C24.4573 24.6617 24.5219 24.6226 24.577 24.5721C24.632 24.5216 24.6765 24.4606 24.7077 24.3927C24.7389 24.3248 24.7563 24.2514 24.7588 24.1767C24.7613 24.102 24.7489 24.0276 24.7224 23.9577C24.6958 23.8879 24.6556 23.824 24.604 23.7699C24.5525 23.7158 24.4907 23.6724 24.4223 23.6425C24.3538 23.6125 24.2801 23.5964 24.2054 23.5953C24.1306 23.5941 24.0564 23.6079 23.9871 23.6357Z" fill="#C4C4C4"/>
<path d="M27.3586 22.3521L26.2263 22.783C26.1032 22.8297 26.0004 22.918 25.9358 23.0327C25.8712 23.1473 25.8488 23.281 25.8725 23.4104C25.8963 23.5399 25.9647 23.6569 26.0658 23.7411C26.1669 23.8254 26.2944 23.8715 26.426 23.8714C26.4944 23.8715 26.5623 23.8589 26.6262 23.8343L27.7585 23.4034C27.8289 23.3781 27.8934 23.3391 27.9485 23.2885C28.0035 23.238 28.048 23.177 28.0792 23.1091C28.1104 23.0412 28.1278 22.9678 28.1303 22.8931C28.1328 22.8184 28.1204 22.744 28.0939 22.6741C28.0673 22.6043 28.0271 22.5404 27.9755 22.4863C27.924 22.4322 27.8622 22.3889 27.7938 22.3589C27.7253 22.3289 27.6516 22.3129 27.5769 22.3117C27.5022 22.3106 27.428 22.3243 27.3586 22.3521Z" fill="#C4C4C4"/>
</svg>
