<svg width="24" height="24" viewBox="0 0 24 24" fill="none" xmlns="http://www.w3.org/2000/svg">
<path d="M23.8475 12.4669C23.6331 12.7602 18.5245 19.6484 11.9999 19.6484C5.47529 19.6484 0.36647 12.7602 0.152297 12.4672C-0.0507657 12.1889 -0.0507657 11.8115 0.152297 11.5333C0.36647 11.24 5.47529 4.35174 11.9999 4.35174C18.5245 4.35174 23.6331 11.24 23.8475 11.533C24.0508 11.8113 24.0508 12.1889 23.8475 12.4669ZM11.9999 5.93415C7.19383 5.93415 3.03127 10.506 1.79907 12.0006C3.02968 13.4966 7.18352 18.066 11.9999 18.066C16.8057 18.066 20.968 13.495 22.2007 11.9995C20.9701 10.5037 16.8163 5.93415 11.9999 5.93415Z" fill="#337D5A"/>
<path d="M11.9996 16.7473C9.38203 16.7473 7.25235 14.6176 7.25235 12C7.25235 9.38244 9.38203 7.25276 11.9996 7.25276C14.6172 7.25276 16.7469 9.38244 16.7469 12C16.7469 14.6176 14.6172 16.7473 11.9996 16.7473ZM11.9996 8.83522C10.2545 8.83522 8.83481 10.2549 8.83481 12C8.83481 13.7452 10.2545 15.1649 11.9996 15.1649C13.7447 15.1649 15.1644 13.7452 15.1644 12C15.1644 10.2549 13.7448 8.83522 11.9996 8.83522Z" fill="#337D5A"/>
</svg>
