<svg width="22" height="22" viewBox="0 0 22 22" fill="none" xmlns="http://www.w3.org/2000/svg">
<g clip-path="url(#clip0_1_1639)">
<path d="M13.8892 18.7499H13.167V19.4721H13.8892V18.7499Z" fill="white"/>
<path d="M8.83278 14.4163H6.66602V15.1385H8.83278V14.4163Z" fill="white"/>
<path d="M19.6677 21.6064L18.8219 12.3164C18.6766 10.6387 17.2686 9.35312 15.5847 9.36052H13.1674V8.36453C13.6305 7.83945 13.8871 7.16405 13.8896 6.46392V4.99088C13.9184 4.97752 13.9462 4.9623 13.973 4.94537C14.1487 4.80919 14.2513 4.59923 14.2507 4.37696V3.67565C14.2506 3.41821 14.1128 3.18054 13.8896 3.05234V1.59953C13.888 1.11629 13.568 0.692011 13.1038 0.557672L11.2982 0.0419811C11.1036 -0.0139937 10.8972 -0.0139937 10.7027 0.0419811L8.89702 0.557672C8.43302 0.692147 8.11315 1.11643 8.11157 1.59953V3.05234C7.88835 3.18054 7.75062 3.41826 7.75044 3.67565V4.37696C7.74963 4.5995 7.85223 4.80977 8.02815 4.9461C8.05474 4.9651 8.08263 4.98221 8.11157 4.99738V6.46536C8.11405 7.1655 8.37072 7.8409 8.83382 8.36598V9.36052H6.41643C4.73249 9.3533 3.32455 10.639 3.17928 12.3167L2.33352 21.6064C2.31556 21.805 2.46204 21.9806 2.66066 21.9986C2.67194 21.9996 2.68327 22 2.69465 22H19.3065C19.506 22.0008 19.6683 21.8398 19.6691 21.6404C19.6692 21.629 19.6687 21.6177 19.6677 21.6064ZM13.1674 6.46392C13.1665 7.24129 12.7502 7.9589 12.0757 8.34539C11.0367 8.93913 9.71308 8.57819 9.11934 7.53922C8.93219 7.21177 8.83378 6.84107 8.83382 6.46392V5.02988L9.59942 4.83848C10.5196 4.60898 11.482 4.60898 12.4021 4.83848L13.1674 5.02988V6.46392ZM12.4451 8.96509V9.60573L11.0006 11.628L9.55608 9.60573V8.96509C9.56005 8.96762 9.5633 8.97051 9.56727 8.97267C10.4561 9.47776 11.5451 9.47776 12.4339 8.97267C12.4379 8.97051 12.4411 8.96762 12.4451 8.96509ZM8.83382 1.59953C8.83373 1.43824 8.94058 1.29645 9.09564 1.25212H9.09528L10.9009 0.736069C10.9656 0.717471 11.0342 0.717471 11.0988 0.736069L12.9045 1.25176C13.0601 1.29573 13.1674 1.43783 13.1674 1.59953V2.84072L12.5773 2.69338C11.542 2.43536 10.4592 2.43536 9.42391 2.69338L8.83382 2.84072V1.59953ZM8.4727 4.37696V3.67565L9.59942 3.39397C10.5194 3.16429 11.4817 3.16429 12.4018 3.39397L13.5285 3.67565V4.37696L12.5773 4.13934C11.5421 3.88131 10.4594 3.88131 9.42427 4.13934L8.4727 4.37696ZM3.89865 12.3821C4.01159 11.0772 5.10667 10.0771 6.41643 10.0828H9.00897L10.7063 12.4594C10.8344 12.6217 11.0699 12.6495 11.2323 12.5213C11.2552 12.5031 11.276 12.4823 11.2942 12.4594L12.9922 10.0828H15.5847C16.8944 10.0771 17.9894 11.077 18.1025 12.3817L18.4842 16.5831H16.7786V12.9718H5.22254V16.5831H3.51694L3.89865 12.3821ZM11.7228 13.6941V17.3053H10.2783V13.6941H11.7228ZM3.77803 19.111V21.2777H3.09189L3.45302 17.3053H5.22254V18.094C5.10689 18.0512 4.98474 18.0288 4.86142 18.0276C4.26307 18.0276 3.77803 18.5126 3.77803 19.111ZM7.38931 21.2777H7.02818H4.50029V19.111C4.50029 18.9115 4.66198 18.7498 4.86142 18.7498C5.06085 18.7498 5.22254 18.9115 5.22254 19.111V20.5555H7.38931C7.58875 20.5555 7.75044 20.7172 7.75044 20.9166C7.75044 21.116 7.58879 21.2777 7.38931 21.2777ZM13.5949 21.2777H8.40625C8.44904 21.1621 8.47148 21.0399 8.4727 20.9166C8.4727 20.3183 7.98766 19.8332 7.38931 19.8332H5.9448V13.6941H9.55608V18.0276H12.4451V13.6941H16.0564V19.8332H14.6119C14.0135 19.8332 13.5285 20.3183 13.5285 20.9166C13.5297 21.0399 13.5522 21.1621 13.5949 21.2777ZM17.5009 21.2777H14.6119C14.4124 21.2777 14.2507 21.116 14.2507 20.9166C14.2507 20.7172 14.4124 20.5555 14.6119 20.5555H16.7786V19.111C16.7786 18.9115 16.9403 18.7498 17.1398 18.7498C17.3392 18.7498 17.5009 18.9115 17.5009 19.111V21.2777ZM18.2231 21.2777V19.111C18.2231 18.5126 17.7381 18.0276 17.1398 18.0276C17.0164 18.0288 16.8943 18.0512 16.7786 18.094V17.3053H18.55L18.9111 21.2777H18.2231Z" fill="white"/>
<path d="M15.3336 18.7499H14.6113V19.4721H15.3336V18.7499Z" fill="white"/>
</g>
<defs>
<clipPath id="clip0_1_1639">
<rect width="22" height="22" fill="white"/>
</clipPath>
</defs>
</svg>
