<svg width="45" height="45" viewBox="0 0 45 45" fill="none" xmlns="http://www.w3.org/2000/svg">
<path d="M44.2615 19.2011H41.7253V15.7807C41.7253 15.3823 41.3949 15.0519 40.9965 15.0519H36.8862V11.6217C36.8862 11.2233 36.5558 10.8929 36.1574 10.8929H31.3183C30.9199 10.8929 30.5895 11.2233 30.5895 11.6217V19.2011H14.2745V11.6217C14.2745 11.2233 13.9441 10.8929 13.5457 10.8929H8.70654C8.30814 10.8929 7.97776 11.2233 7.97776 11.6217V15.0422H3.86742C3.46901 15.0422 3.13863 15.3725 3.13863 15.7709V19.1914H0.728784C0.330382 19.1914 0 19.5217 0 19.9202V24.9536C0 25.352 0.330382 25.6824 0.728784 25.6824H3.14835V29.2292C3.14835 29.6276 3.47873 29.9579 3.87713 29.9579H7.98748V33.3784C7.98748 33.7768 8.31786 34.1072 8.71626 34.1072H13.5554C13.9538 34.1072 14.2842 33.7768 14.2842 33.3784V25.6727H30.5992V33.3784C30.5992 33.7768 30.9296 34.1072 31.328 34.1072H36.1671C36.5655 34.1072 36.8959 33.7768 36.8959 33.3784V29.9579H41.0063C41.4047 29.9579 41.735 29.6276 41.735 29.2292V25.6824H44.2712C44.6696 25.6824 45 25.352 45 24.9536V19.9202C44.9903 19.5217 44.6599 19.2011 44.2615 19.2011ZM3.14835 24.2346H1.45757V24.2248V20.6587H3.14835V24.2346ZM7.98748 28.5101H4.60592V16.5094H7.98748V28.5101ZM12.8169 32.6593H9.43533V12.3505H12.8169V32.6593ZM30.5895 24.2346H14.2745V24.2248V20.6587H30.5895V24.2346ZM35.4286 32.6593H32.0471V12.3505H35.4286V32.6593ZM40.2678 28.5101H36.8862V16.5094H40.2678V28.5101ZM43.5327 24.2248H41.7253V20.6587H43.5327V24.2248Z" fill="#C4C4C4"/>
</svg>
