<svg width="18" height="18" viewBox="0 0 18 18" fill="none" xmlns="http://www.w3.org/2000/svg">
<path d="M16.9231 16.1065C16.7929 15.6621 14.6731 7.72638 14.3847 6.64644C14.0974 5.56702 13.3465 5.27838 12.5006 5.27838C12.2088 5.27838 11.0839 5.27838 9.74298 5.27838V4.28109C14.8719 3.80376 16.2397 0 16.2397 0H1.41975C1.41975 0 2.56673 4.01798 8.05111 4.30307V5.27782C6.80333 5.27782 5.77582 5.27782 5.49901 5.27782C4.65305 5.27782 3.90269 5.56645 3.61457 6.64592C3.32669 7.72586 1.20714 15.6615 1.0767 16.106C0.914105 16.663 0.964646 17.3903 2.09811 17.3903C2.22311 17.3903 2.50655 17.3903 2.90752 17.3903V18H14.9532V17.3908C15.4234 17.3908 15.7623 17.3908 15.9002 17.3908C17.0352 17.3908 17.0857 16.6635 16.9231 16.1065ZM9.00004 6.30887C11.7771 6.30887 14.0271 8.55778 14.0271 11.3346C14.0271 14.1113 11.7771 16.3608 9.00004 16.3608C6.22407 16.3608 3.97403 14.1114 3.97403 11.3346C3.97403 8.55773 6.22403 6.30887 9.00004 6.30887Z" fill="#337D5A"/>
<path d="M6.11453 9.12252L5.59872 8.75531L5.44629 8.96901L5.95468 9.3296C6.00191 9.25703 6.06039 9.19226 6.11453 9.12252Z" fill="#337D5A"/>
<path d="M7.53296 7.99638L7.25175 7.42786L7.01611 7.54487L7.30281 8.12195C7.38002 8.08096 7.45306 8.03265 7.53296 7.99638Z" fill="#337D5A"/>
<path d="M5.34961 11.3346C5.34961 11.3049 5.35812 11.2781 5.3592 11.249H4.71924V11.511H5.36771C5.36554 11.4511 5.34961 11.3951 5.34961 11.3346Z" fill="#337D5A"/>
<path d="M12.9444 9.41088L12.8186 9.18176L12.1611 9.5416C12.2029 9.6163 12.2474 9.69322 12.2859 9.77067L12.9444 9.41088Z" fill="#337D5A"/>
<path d="M11.418 7.72094L11.1928 7.58582L10.8286 8.19226C10.9039 8.23675 10.9846 8.27216 11.0582 8.32109L11.418 7.72094Z" fill="#337D5A"/>
<path d="M9.19639 7.70474V7.03125H8.93408V7.69098C8.95607 7.69098 8.97748 7.68493 8.99947 7.68493C9.06755 7.68493 9.12991 7.70114 9.19639 7.70474Z" fill="#337D5A"/>
<path d="M11.1158 15.216L10.7654 14.5096C10.6895 14.553 10.6143 14.5997 10.5352 14.636L10.8796 15.3325L11.1158 15.216Z" fill="#337D5A"/>
<path d="M12.6859 13.7911L12.047 13.3374C11.9997 13.411 11.9404 13.4758 11.8877 13.5445L12.5331 14.0043L12.6859 13.7911Z" fill="#337D5A"/>
<path d="M12.6503 11.3346C12.6503 11.3945 12.636 11.4511 12.6333 11.5104H13.4133V11.2484H12.6426C12.642 11.2786 12.6503 11.3049 12.6503 11.3346Z" fill="#337D5A"/>
<path d="M8.93408 14.9782V15.7258H9.19639V14.9644C9.12991 14.9677 9.06755 14.9842 8.99947 14.9842C8.97748 14.9842 8.95607 14.9782 8.93408 14.9782Z" fill="#337D5A"/>
<path d="M5.7813 13.0198L5.18555 13.3439L5.31164 13.5736L5.90517 13.2506C5.86012 13.1753 5.8214 13.0979 5.7813 13.0198Z" fill="#337D5A"/>
<path d="M7.31136 14.552C7.23307 14.5107 7.15477 14.4712 7.08007 14.4261L6.71338 15.0359L6.93833 15.171L7.31136 14.552Z" fill="#337D5A"/>
<path d="M7.46094 13.89L7.66282 14.0043L8.92733 11.8889C8.97896 11.9004 9.02681 11.9202 9.08146 11.9202C9.52578 11.9202 9.8851 11.5604 9.8851 11.1171C9.8851 10.6732 9.52578 10.3135 9.08146 10.3135C8.6387 10.3135 8.27862 10.6732 8.27862 11.1171C8.27862 11.3709 8.40363 11.5873 8.58763 11.7356L7.46094 13.89ZM9.08193 10.8874C9.21025 10.8874 9.31265 10.9908 9.31265 11.1171C9.31265 11.244 9.20968 11.3477 9.08193 11.3477C8.9548 11.3477 8.85287 11.244 8.85287 11.1171C8.85287 10.9907 8.9548 10.8874 9.08193 10.8874Z" fill="#337D5A"/>
</svg>
