<svg width="67" height="76" viewBox="0 0 67 76" fill="none" xmlns="http://www.w3.org/2000/svg">
<path d="M10.4983 31.4445C12.1897 27.0776 14.2536 22.9609 17.2609 19.3621C22.46 13.1367 29.0797 10.2627 37.1378 10.8841C39.197 11.0335 41.1193 10.8427 42.778 9.35545C43.7703 8.46205 44.8804 8.74549 45.5429 9.92275C46.0472 10.8212 46.4337 11.7646 46.9175 12.6731C47.7759 14.3144 48.9797 15.6974 50.4476 16.811C57.9247 22.3755 60.3949 29.9473 58.5043 38.9428C56.5639 48.1791 52.1841 56.256 45.5415 62.9595C41.0268 67.5131 35.5577 69.7725 29.1058 68.9879C27.5207 68.7971 25.9605 68.3397 24.4038 67.9695C23.3187 67.712 22.2559 67.3418 21.161 67.0636C13.7091 65.1906 9.55058 60.2659 8.168 52.7976C7.37447 48.4771 7.70066 44.1681 8.52512 39.895C9.0712 37.0565 9.82536 34.2561 10.4983 31.4445ZM43.3808 11.6821C43.2897 11.6503 43.2137 11.6239 43.128 11.5768C41.2592 12.836 39.169 13.02 37.0134 12.8542C33.2817 12.5696 29.6693 13.0666 26.2668 14.7208C21.5665 16.9727 18.2423 20.6504 15.6839 25.1111C12.6012 30.4906 10.9208 36.3413 10.0808 42.4675C9.48939 46.8046 9.4534 51.1115 10.8754 55.2895C12.6662 60.5596 16.1672 63.9991 21.6765 65.1437C21.9962 65.2035 22.5274 65.096 22.6942 64.8615C24.6119 62.191 25.841 59.2979 25.826 55.9198C25.7924 50.5906 26.7993 45.4517 29.4628 40.7867C31.0991 37.8977 32.9623 35.1394 34.8657 32.4123C38.0829 27.8197 41.0474 23.1219 42.3004 17.5697C42.7453 15.608 43.0224 13.6395 43.3808 11.6821ZM24.4647 65.8396C24.7121 65.9602 24.8685 66.0491 25.0355 66.1073C31.1874 68.0953 36.9256 67.4096 42.1747 63.3871C45.248 61.0159 47.6495 58.0321 49.6891 54.7673C52.8693 49.6456 55.585 44.2932 56.7082 38.2828C58.1914 30.2123 56.12 23.4505 49.4069 18.4791C47.8934 17.3496 46.6182 15.9762 45.6169 14.3539C45.4631 14.1111 45.3093 13.8682 45.0912 13.5169C45.02 13.8191 44.9665 13.9725 44.9488 14.1212C44.311 18.4938 43.1258 22.7273 40.8634 26.5339C38.9256 29.7997 36.8261 32.992 34.581 36.0647C30.1059 42.2153 27.5761 48.9404 27.7641 56.6121C27.78 57.4953 27.6074 58.3816 27.4349 59.268C26.9626 61.6504 25.8435 63.7386 24.4647 65.8396Z" fill="white"/>
<path d="M18.9568 35.2172C19.2416 34.0085 19.496 32.7893 19.796 31.5859C20.9008 27.29 23.2877 23.9569 27.1077 21.6909C27.8172 21.2669 28.4263 21.3758 28.7231 21.8923C29.0298 22.4293 28.7918 22.9659 28.0769 23.4052C24.3543 25.6363 22.2674 28.9878 21.4384 33.225C20.7367 36.8525 19.3025 40.1388 16.9135 42.9893C16.6744 43.2846 16.4103 43.554 16.1212 43.7975C15.6358 44.2135 15.1161 44.2389 14.6862 43.7623C14.2814 43.3115 14.3355 42.8141 14.7754 42.3822C16.302 40.8833 17.3757 39.0718 18.1921 37.1191C18.4568 36.5057 18.6358 35.8453 18.8603 35.2008C18.896 35.196 18.9264 35.2066 18.9568 35.2172Z" fill="white"/>
<path d="M36.2495 22.9651C35.2128 25.3057 33.8348 27.3554 32.2451 29.2797C31.7518 29.865 31.1545 29.9667 30.7086 29.5361C30.2028 29.0329 30.3337 28.5106 30.7441 28.0168C32.0947 26.3879 33.3497 24.6911 34.0652 22.686C34.4118 21.7398 34.5512 20.7042 34.6746 19.7147C34.7562 19.0892 34.9318 18.6341 35.5791 18.5842C36.2568 18.545 36.6777 18.9497 36.6309 19.6217C36.5665 20.7351 36.3852 21.8421 36.2495 22.9651Z" fill="white"/>
<path d="M22.8234 51.5871C22.0329 53.5144 21.0664 55.3116 19.7416 56.9152C19.6015 57.0729 19.4561 57.246 19.3009 57.3984C18.8557 57.8456 18.3548 57.9637 17.8786 57.5225C17.3871 57.0759 17.4671 56.5531 17.8668 56.09C19.9891 53.6629 21.2174 50.8211 21.6623 47.6376C21.7485 47.0481 22.1107 46.6925 22.7206 46.75C23.3457 46.8129 23.6952 47.2272 23.593 47.8627C23.3582 49.1232 23.0832 50.3525 22.8234 51.5871Z" fill="white"/>
<path d="M50.0871 46.1468C48.6241 50.2492 46.7994 53.1413 43.7427 55.1225C43.3 55.4157 42.8171 55.6778 42.3154 55.8472C41.8084 56.0319 41.2671 55.8262 41.1641 55.2912C41.1039 54.9261 41.2829 54.2657 41.5498 54.135C46.3205 51.6323 48.078 47.2711 48.9037 42.3101C48.9153 42.2281 48.9268 42.1461 48.9535 42.0693C49.0656 41.4544 49.4082 41.0575 50.0583 41.1463C50.7236 41.2404 51.0061 41.7001 50.8727 42.3764C50.547 43.8978 50.2321 45.3885 50.0871 46.1468Z" fill="white"/>
<path d="M36.3413 55.6936C35.4495 58.2052 34.2146 60.5284 32.6563 62.7046C32.2968 63.1989 31.8649 63.4614 31.2744 63.1525C30.7697 62.8906 30.6551 62.4377 30.8368 61.9159C30.9063 61.7164 31.0669 61.5486 31.1918 61.3856C33.5242 57.9647 35.2241 54.3064 35.5638 50.1053C35.6027 49.6026 35.5961 49.084 35.6046 48.5707C35.6157 47.9035 35.8725 47.4594 36.5752 47.4461C37.2931 47.438 37.5346 47.9179 37.5645 48.5651C37.6144 50.768 37.258 52.9154 36.5766 55.0184C36.5017 55.2332 36.4215 55.4634 36.3413 55.6936Z" fill="white"/>
<path d="M47.1876 29.7866C45.6705 33.1645 45.1991 36.7174 45.5912 40.3818C45.6748 41.1681 45.3814 41.6682 44.7698 41.7133C44.0153 41.7774 43.7177 41.3124 43.6421 40.6493C43.1829 36.7379 43.6988 32.9596 45.2407 29.315C45.2987 29.1975 45.3718 29.0853 45.4351 28.9525C45.7248 28.365 46.1658 28.1745 46.7571 28.4321C47.2778 28.6479 47.447 29.1887 47.1876 29.7866Z" fill="white"/>
</svg>
