<svg width="51" height="51" viewBox="0 0 51 51" fill="none" xmlns="http://www.w3.org/2000/svg">
<g clip-path="url(#clip0_1_222)">
<path d="M41.911 8.96675C33.5995 0.65683 24.1231 -1.99564 15.2178 1.50584L14.07 1.95797L14.7412 2.99452C15.0509 3.47311 15.3606 3.91512 15.6707 4.34001C13.3525 5.51158 11.1218 7.15901 9.02343 9.25663C4.58657 13.6935 1.45474 21.2521 0.428307 29.997C-0.282183 36.0478 0.1859 41.4629 1.6061 44.9005C1.87263 45.8313 2.28857 46.6013 2.86872 47.1674C2.90412 47.2017 2.94848 47.2157 2.987 47.2441C3.03525 47.3005 3.08272 47.3561 3.13213 47.4094C3.1442 47.4227 3.15353 47.4378 3.16521 47.4511C3.17454 47.4608 3.17649 47.4732 3.18661 47.4834C3.19166 47.4884 3.19789 47.4935 3.20373 47.4985C3.20684 47.5016 3.20801 47.5048 3.21112 47.5075C3.21384 47.5106 3.21812 47.5118 3.22085 47.5137C3.22591 47.5188 3.23213 47.5238 3.23797 47.5289C3.2512 47.5417 3.26326 47.5592 3.27649 47.5725C3.36014 47.6592 3.46948 47.7339 3.56014 47.8164C3.57843 47.8308 3.59438 47.8479 3.61267 47.8619C5.82507 49.8483 9.92808 50.9654 15.2883 50.9988C15.3673 51 15.4458 51 15.5248 51C23.99 51 35.2691 48.1818 41.6094 41.8415C43.7674 39.6835 45.451 37.3762 46.6319 34.9669C47.077 35.2615 47.5404 35.5552 48.035 35.8482L49.0703 36.4618L49.4945 35.3342C52.8026 26.529 50.11 17.1642 41.911 8.96675ZM40.1811 40.4139C34.1921 46.4032 23.3387 49.0195 15.3003 48.9802C13.9346 48.972 12.6541 48.8771 11.465 48.7199C16.9968 47.6234 23.8632 44.0578 27.0316 38.8851C27.3234 38.4096 27.174 37.7879 26.6985 37.4972C26.2211 37.2066 25.6016 37.356 25.311 37.8303C22.2698 42.794 14.935 46.3803 9.60085 46.9775C7.28534 47.234 5.50212 46.9172 4.67023 46.1056C4.65622 46.0916 4.64377 46.0733 4.63093 46.0593C4.05235 44.8266 7.41374 37.4898 12.2374 33.9109C12.684 33.579 12.7782 32.9471 12.4459 32.5001C12.1129 32.0518 11.4814 31.9588 11.0351 32.2911C7.73669 34.7385 4.65817 39.2505 3.30256 42.6951C3.27727 42.1014 3.29672 41.4555 3.37532 40.7543C3.97375 35.4191 7.55888 28.083 12.5226 25.043C12.998 24.7524 13.1475 24.1306 12.8556 23.6551C12.565 23.18 11.9444 23.0314 11.4681 23.3224C6.9371 26.0971 3.6399 31.7086 2.15317 36.7766C2.07846 34.7397 2.16523 32.5191 2.43371 30.2332C3.39244 22.0536 6.39003 14.7452 10.4506 10.6846C12.5066 8.62863 14.6879 7.04384 16.9415 5.96293C20.131 9.68814 23.1558 10.8924 25.0939 11.2546C24.8748 11.5616 24.688 11.8632 24.4943 12.1675C24.3923 12.327 24.2744 12.4881 24.1795 12.6468C24.0534 12.8565 23.9527 13.0624 23.8375 13.2713C23.7001 13.52 23.5507 13.7709 23.4285 14.0164C23.3721 14.1304 23.3309 14.2406 23.2783 14.3534C23.1208 14.6884 22.9632 15.0226 22.8332 15.3506C22.818 15.3892 22.8079 15.4254 22.7939 15.4639C20.5936 21.103 22.2317 25.5994 22.6916 26.6601L22.8503 27.0266L23.2169 27.1854C24.2017 27.6111 28.1494 29.0616 33.2264 27.5013C33.2283 27.5013 33.2291 27.5002 33.231 27.5002C33.5976 27.3869 33.9719 27.2508 34.3497 27.1052C34.408 27.0823 34.4656 27.0671 34.524 27.0438C34.8108 26.9298 35.1045 26.7885 35.3971 26.6543C35.5516 26.5827 35.703 26.5251 35.8594 26.4473C36.0886 26.3333 36.3236 26.1928 36.5566 26.066C36.7808 25.9426 37.0018 25.8337 37.2278 25.6975C37.3912 25.5994 37.5589 25.4776 37.7235 25.3714C38.0212 25.1804 38.3181 24.9979 38.6196 24.7831C39.0114 26.8924 40.4122 30.2869 44.9654 33.7802C43.8775 36.0941 42.2725 38.3229 40.1811 40.4139ZM48.0015 33.4568C47.7007 33.2631 47.4361 33.0701 47.1595 32.8775L46.8081 32.6242C39.9834 27.6936 40.4787 23.2042 40.5122 22.959L40.9686 20.2428L40.9515 20.2571L38.8609 22.0334C32.1995 27.6916 26.0619 26.0807 24.3943 25.4792C24.2814 25.1664 24.1328 24.696 24.0036 24.0956C23.8313 23.294 23.6927 22.2594 23.718 21.0532C23.7744 18.3401 24.6565 14.76 27.8401 11.0134L29.6136 8.92745L26.9965 9.3504L26.9144 9.36246C26.9024 9.36441 26.8724 9.3683 26.8308 9.37141C26.8176 9.37258 26.7977 9.37336 26.7806 9.37452C26.7573 9.37647 26.73 9.37764 26.7008 9.37958C25.8055 9.41382 22.1437 9.21188 18.0236 4.08554L17.7349 3.72757C17.5411 3.47622 17.3474 3.23303 17.1524 2.95833C24.9172 0.457223 33.152 3.06533 40.4818 10.3959C47.721 17.6308 50.361 25.773 48.0015 33.4568Z" fill="white"/>
</g>
<defs>
<clipPath id="clip0_1_222">
<rect width="51" height="51" fill="white"/>
</clipPath>
</defs>
</svg>
