<svg width="10" height="10" viewBox="0 0 10 10" fill="none" xmlns="http://www.w3.org/2000/svg">
<g clip-path="url(#clip0_1_8540)">
<path d="M9.98009 7.74817C9.9518 7.66295 9.77185 7.5374 9.44036 7.37183C9.35056 7.31964 9.2226 7.24872 9.05702 7.15874C8.8913 7.06877 8.74088 6.98586 8.60602 6.91008C8.4709 6.83434 8.34431 6.76095 8.22602 6.69003C8.20712 6.67583 8.14794 6.63446 8.04851 6.56565C7.94898 6.49705 7.86505 6.44613 7.79627 6.41292C7.72764 6.37991 7.66012 6.36329 7.59383 6.36329C7.49915 6.36329 7.38089 6.4308 7.2389 6.56565C7.09691 6.70068 6.96666 6.84735 6.84835 7.0061C6.73002 7.16479 6.60452 7.31145 6.47208 7.4464C6.33945 7.58141 6.23047 7.64884 6.14534 7.64884C6.10261 7.64884 6.04932 7.63693 5.98547 7.61342C5.92163 7.58976 5.87308 7.56949 5.83974 7.55315C5.80671 7.53646 5.75002 7.50342 5.66947 7.45354C5.58877 7.40382 5.5439 7.37658 5.53444 7.37183C4.88581 7.0119 4.32951 6.59996 3.86545 6.1361C3.40155 5.67197 2.98955 5.11572 2.62973 4.46701C2.625 4.45753 2.59771 4.41253 2.54804 4.33209C2.49828 4.25156 2.46512 4.19482 2.44856 4.16159C2.43199 4.12848 2.41187 4.07992 2.38823 4.01601C2.3646 3.95211 2.35274 3.89887 2.35274 3.85621C2.35274 3.77104 2.42022 3.66208 2.55517 3.5295C2.6901 3.39698 2.83692 3.27146 2.99548 3.15317C3.15416 3.03489 3.30083 2.90464 3.4358 2.76265C3.57073 2.62059 3.63819 2.50228 3.63819 2.4076C3.63819 2.34136 3.62162 2.27382 3.58851 2.20519C3.55538 2.1364 3.50448 2.05247 3.4358 1.95299C3.36709 1.85357 3.32568 1.79444 3.31145 1.77541C3.2405 1.65712 3.16719 1.53048 3.09135 1.39553C3.0155 1.2606 2.93271 1.1102 2.84271 0.944507C2.75279 0.778885 2.68182 0.650998 2.62968 0.561048C2.46405 0.229678 2.33861 0.0496769 2.25336 0.0213683C2.2202 0.00716422 2.17045 0 2.10423 0C1.97632 0 1.80945 0.023632 1.6035 0.0710451C1.39748 0.118384 1.23537 0.168036 1.11698 0.2202C0.880241 0.319579 0.629319 0.608386 0.364144 1.08652C0.122675 1.5315 0.00195312 1.97193 0.00195312 2.40747C0.00195312 2.53521 0.0102367 2.65949 0.026804 2.78034C0.0433712 2.90106 0.0729734 3.0372 0.115635 3.18875C0.158223 3.34024 0.192576 3.45278 0.218546 3.52606C0.244541 3.5994 0.293074 3.73076 0.364119 3.92022C0.435065 4.10962 0.477727 4.22557 0.491931 4.26818C0.657628 4.73221 0.854122 5.14647 1.08136 5.51107C1.45524 6.11709 1.96547 6.74339 2.61174 7.38971C3.25804 8.03598 3.88421 8.54619 4.49028 8.92022C4.85484 9.14743 5.26924 9.3439 5.7332 9.50972C5.77584 9.52385 5.89178 9.56642 6.08111 9.63761C6.27052 9.7086 6.40193 9.75714 6.47527 9.78318C6.54863 9.80925 6.66119 9.84363 6.81256 9.88629C6.96425 9.92896 7.10027 9.95856 7.22099 9.97525C7.34179 9.99159 7.46609 10 7.59386 10C8.02938 10 8.46983 9.87923 8.91488 9.63778C9.39297 9.37271 9.6817 9.12174 9.78113 8.88482C9.83342 8.76656 9.88295 8.6044 9.93029 8.39838C9.97777 8.19245 10.0014 8.02561 10.0014 7.89773C10.0015 7.83123 9.99436 7.78161 9.98009 7.74817Z" fill="#337D5A"/>
</g>
<defs>
<clipPath id="clip0_1_8540">
<rect width="10" height="10" fill="white"/>
</clipPath>
</defs>
</svg>
