<svg width="29" height="24" viewBox="0 0 29 24" fill="none" xmlns="http://www.w3.org/2000/svg">
<path d="M22.5738 23.255L21.2014 6.27062C21.1743 5.93557 20.8945 5.67742 20.5583 5.67742H16.8737V4.86065C16.8737 2.18047 14.722 0 12.0417 0H11.9566C9.27639 0 7.06727 2.18047 7.06727 4.86065V5.67742H3.44C3.10383 5.67742 2.824 5.93557 2.79691 6.27062L1.42056 23.3029C1.40602 23.4825 1.46727 23.6599 1.58942 23.7923C1.71157 23.9246 1.88362 24 2.06366 24H21.9346C21.9351 24 21.9358 24 21.9363 24C22.2927 24 22.5815 23.7112 22.5815 23.3548C22.5815 23.3209 22.5789 23.2875 22.5738 23.255ZM8.35759 4.86065C8.35759 2.89196 9.98787 1.29032 11.9566 1.29032H12.0417C14.0104 1.29032 15.5834 2.89196 15.5834 4.86065V5.67742H8.35759V4.86065V4.86065Z" fill="#337D5A"/>
<circle cx="21.5" cy="7.5" r="7.5" fill="#93B474"/>
<path d="M21.712 10.096C21.2533 10.096 20.8427 9.984 20.48 9.76C20.1173 9.53067 19.832 9.2 19.624 8.768C19.416 8.336 19.312 7.81333 19.312 7.2C19.312 6.58667 19.416 6.064 19.624 5.632C19.832 5.2 20.1173 4.872 20.48 4.648C20.8427 4.41867 21.2533 4.304 21.712 4.304C22.176 4.304 22.5867 4.41867 22.944 4.648C23.3067 4.872 23.592 5.2 23.8 5.632C24.008 6.064 24.112 6.58667 24.112 7.2C24.112 7.81333 24.008 8.336 23.8 8.768C23.592 9.2 23.3067 9.53067 22.944 9.76C22.5867 9.984 22.176 10.096 21.712 10.096ZM21.712 9C21.9307 9 22.12 8.93867 22.28 8.816C22.4453 8.69333 22.5733 8.49867 22.664 8.232C22.76 7.96533 22.808 7.62133 22.808 7.2C22.808 6.77867 22.76 6.43467 22.664 6.168C22.5733 5.90133 22.4453 5.70667 22.28 5.584C22.12 5.46133 21.9307 5.4 21.712 5.4C21.4987 5.4 21.3093 5.46133 21.144 5.584C20.984 5.70667 20.856 5.90133 20.76 6.168C20.6693 6.43467 20.624 6.77867 20.624 7.2C20.624 7.62133 20.6693 7.96533 20.76 8.232C20.856 8.49867 20.984 8.69333 21.144 8.816C21.3093 8.93867 21.4987 9 21.712 9Z" fill="white"/>
</svg>
