<svg width="13" height="13" viewBox="0 0 13 13" fill="none" xmlns="http://www.w3.org/2000/svg">
<g clip-path="url(#clip0_1_2753)">
<path d="M9.48744 0H3.51256C1.57574 0 0 1.57574 0 3.51256V9.48744C0 11.4243 1.57574 13 3.51256 13H9.48744C11.4243 13 13 11.4243 13 9.48744V3.51256C13 1.57574 11.4243 0 9.48744 0ZM11.9497 9.48744C11.9497 10.8451 10.8452 11.9497 9.48744 11.9497H3.51256C2.15485 11.9497 1.05026 10.8452 1.05026 9.48744V3.51256C1.05026 2.15485 2.15483 1.05026 3.51256 1.05026H9.48744C10.8451 1.05026 11.9497 2.15483 11.9497 3.51256V9.48744Z" fill="#EFEFEF"/>
<path d="M9.40961 6.0466C9.31719 5.42333 9.03284 4.85844 8.58731 4.41291C8.14178 3.96741 7.57689 3.68303 6.95365 3.59064C6.66988 3.54856 6.38218 3.54856 6.09844 3.59064C5.32819 3.70487 4.64856 4.11219 4.1847 4.73758C3.72084 5.36298 3.52825 6.1316 3.64248 6.9018C3.75671 7.67203 4.16403 8.35166 4.78943 8.81555C5.29714 9.19211 5.89915 9.38986 6.51987 9.38986C6.66376 9.38986 6.80869 9.37924 6.95362 9.35774C7.72387 9.24351 8.4035 8.83619 8.86737 8.21079C9.33125 7.58542 9.52384 6.81682 9.40961 6.0466ZM6.79958 8.31883C6.30687 8.392 5.81518 8.26873 5.4151 7.97199C5.01502 7.67525 4.75446 7.24046 4.68142 6.74776C4.60834 6.25505 4.73151 5.76336 5.02825 5.36328C5.32502 4.9632 5.75978 4.70264 6.25251 4.62957C6.34326 4.61611 6.43464 4.60938 6.52602 4.60938C6.6174 4.60938 6.70881 4.61611 6.79955 4.6296C7.61792 4.75094 8.24931 5.3823 8.37067 6.20069C8.52149 7.21779 7.81673 8.16801 6.79958 8.31883Z" fill="#EFEFEF"/>
<path d="M10.1572 2.84254C10.0594 2.74476 9.92407 2.68872 9.7859 2.68872C9.64772 2.68872 9.51236 2.74473 9.41456 2.84254C9.31678 2.94034 9.26074 3.07547 9.26074 3.21388C9.26074 3.35228 9.31678 3.48741 9.41456 3.58521C9.51236 3.68299 9.64772 3.73903 9.7859 3.73903C9.92407 3.73903 10.0594 3.68302 10.1572 3.58521C10.255 3.48741 10.3111 3.35205 10.3111 3.21388C10.3111 3.07567 10.255 2.94032 10.1572 2.84254Z" fill="#EFEFEF"/>
</g>
<defs>
<clipPath id="clip0_1_2753">
<rect width="13" height="13" fill="white"/>
</clipPath>
</defs>
</svg>
