<svg width="70" height="74" viewBox="0 0 70 74" fill="none" xmlns="http://www.w3.org/2000/svg">
<path d="M69.7738 40.8065C70.3185 44.3085 69.8343 47.6918 68.8054 50.897C67.7765 54.2803 66.2634 57.4855 63.9635 60.3346C60.9374 64.1333 57.4875 67.4572 52.8877 69.5347C51.4352 70.1876 50.0431 71.1373 48.53 71.6121C46.7143 72.2057 44.9592 72.9773 43.0224 73.0367C42.7198 73.0367 42.3566 72.9773 42.1146 73.096C38.7858 74.4019 35.2754 73.927 31.8861 73.8677C29.9493 73.8083 28.0126 73.0367 26.0758 72.7399C22.3839 72.087 19.1156 70.425 16.0289 68.5257C13.608 67.1011 11.3081 65.3798 9.37137 63.3023C7.43462 61.1655 5.61891 58.91 4.22687 56.4171C2.71379 53.7461 1.68489 50.9564 0.898082 47.9886C-0.312387 43.7743 -0.0097699 39.5007 0.1718 35.2864C0.292847 32.7342 1.14018 30.1819 2.10855 27.7483C4.0453 23.0592 6.8899 18.9043 10.6424 15.3429C11.7318 14.3339 12.8817 13.5029 13.9711 12.5532C14.2132 12.3751 14.4553 12.019 14.5159 11.7222C15.2421 6.97378 18.0867 3.88728 22.3234 1.75048C24.7443 0.504007 27.2863 -0.148906 30.0099 0.029161C32.1282 0.207228 34.186 0.682074 36.1227 1.69112C38.9673 3.17501 41.8725 4.59955 44.7776 6.08344C47.0775 7.2112 49.3168 8.57638 51.6773 9.46672C54.0377 10.3571 55.9744 12.0784 58.5164 12.5532C60.2111 14.2745 63.1162 14.1558 64.5082 16.4707C63.7214 18.0139 61.9663 18.192 60.6347 18.6669C57.9112 19.6165 55.1876 20.5069 52.5851 21.5159C48.9537 22.9405 45.2618 24.1276 41.6909 25.5521C39.3305 26.5018 36.9095 27.4515 34.4886 28.2231C31.765 29.1135 28.9204 29.1728 26.0758 28.7573C23.5944 28.4012 21.4155 27.2141 19.5998 25.7302C17.7841 24.2463 16.0895 22.4656 15.4237 20.1507C14.2738 19.3791 14.879 18.0733 14.5159 17.0049C13.0633 17.0642 12.2765 18.0733 11.5502 18.9636C9.91608 20.9817 8.22142 23.0592 6.8899 25.3147C5.0742 27.9857 4.0453 30.8941 3.56111 34.04C3.31902 35.8207 2.89536 37.6013 2.77431 39.382C2.59274 41.3407 3.2585 43.2401 3.50059 45.1989C3.80321 47.3357 4.40844 49.2944 5.19525 51.2531C6.70833 54.9332 8.88718 58.1978 11.7318 61.0468C15.4237 64.7862 19.7209 67.576 24.7443 69.1192C26.6811 69.7128 28.6783 70.247 30.7967 70.4844C32.9755 70.7218 35.1544 70.8999 37.2727 70.7812C41.9935 70.425 46.5328 69.416 50.8299 67.2198C53.7956 65.6766 56.4586 63.8365 58.819 61.5217C61.7242 58.6726 63.903 55.3487 65.2345 51.5499C66.0213 49.2944 66.6871 46.9795 66.7476 44.5459C66.8081 43.5963 67.0502 42.7059 67.1107 41.7562C67.2318 40.1536 67.7765 39.9162 69.2896 40.5691C69.4106 40.6285 69.5317 40.6878 69.6527 40.7472C69.7738 40.7472 69.7738 40.8065 69.7738 40.8065ZM17.6631 14.2745C17.2999 14.2745 16.9368 14.2745 16.4526 14.2745C16.3316 16.1739 16.9368 17.7765 17.6026 19.3198C19.1156 22.703 21.6576 25.0179 25.2285 26.205C27.4074 26.9173 29.7072 27.1547 31.8256 26.4424C36.3648 24.9586 40.783 23.1779 45.3223 21.694C48.2274 20.7443 51.072 19.4978 54.0377 18.6075C56.035 18.0139 57.9112 17.0642 59.969 16.2333C59.6058 15.9365 59.4243 15.6991 59.1217 15.5804C50.8905 11.6035 42.5987 7.62669 34.4281 3.53115C32.6729 2.70017 30.7967 2.40339 29.0415 2.40339C27.4679 2.40339 25.7732 2.75952 24.1391 3.47179C20.6893 5.01504 18.2683 7.2112 17.1789 10.8319C16.9368 11.7222 16.6947 12.4345 16.9368 13.4436C18.0262 13.4436 18.9946 13.4436 19.963 13.4436C20.3866 14.4526 21.5971 13.3248 22.1418 14.3339C20.5682 14.2745 19.1156 14.2745 17.6631 14.2745Z" fill="white"/>
<path d="M50.3456 49.1751C47.1983 49.2345 45.0195 47.9287 43.5064 45.2579C41.2065 41.1625 43.2038 36.1769 47.8036 34.7524C51.6771 33.5654 55.6111 34.8118 57.6689 38.3729C58.3347 39.56 58.5768 41.2219 58.3952 42.587C57.9715 45.2579 56.7005 47.5726 53.7954 48.5223C52.706 48.8784 51.4955 48.9971 50.3456 49.1751ZM46.2905 41.7561C46.2905 44.1895 48.4088 46.3262 50.6482 46.2669C52.7665 46.2075 54.8848 43.9521 54.8848 41.6967C54.9454 39.3226 53.0086 37.4827 50.5877 37.364C48.2272 37.3046 45.9879 39.2632 46.2905 41.7561Z" fill="white"/>
<path d="M17.2998 37.7201C17.2998 38.6104 17.2998 39.2633 17.2998 40.035C19.4787 40.035 21.597 40.035 23.7153 40.035C23.8969 40.4505 24.0785 40.6879 24.139 40.9253C24.6837 42.5872 24.3206 43.1214 22.6259 43.1214C20.8707 43.1214 19.1761 43.1214 17.2393 43.1214C17.1788 43.9524 17.1788 44.724 17.1183 45.7331C19.7813 45.7331 22.3838 45.7331 25.0468 45.7331C25.41 46.8015 25.2284 47.7512 25.2889 48.9383C23.2311 48.9383 21.2944 48.9383 19.3576 48.9383C17.4814 48.9383 15.6052 48.9383 13.5474 48.9383C13.5474 47.3357 13.5474 45.8518 13.5474 44.4273C13.5474 41.6376 13.5474 38.7885 13.5474 35.9988C13.5474 34.6336 13.7895 34.3369 14.9999 34.3962C18.3287 34.5149 21.718 34.693 25.1679 34.8711C25.1679 35.6427 25.1679 36.3549 25.1679 37.3046C24.5021 37.4233 23.7153 37.8388 22.989 37.7201C21.2339 37.4233 19.4182 38.0169 17.2998 37.7201Z" fill="white"/>
<path d="M40.7227 36.8296C39.9964 37.6012 39.2702 38.3728 38.6044 39.085C35.8203 36.5922 34.0046 37.1857 32.3099 38.3728C30.3732 39.7972 30.4942 42.7054 31.5837 44.1298C33.2783 46.3258 35.5782 46.4445 38.5439 44.6047C39.3307 45.3169 40.1175 45.9697 40.9043 46.6226C38.5439 49.3528 35.5177 49.1747 32.552 48.878C30.6153 48.6405 29.1022 47.3348 28.1943 45.673C25.8944 41.3403 27.2865 37.1857 31.16 35.1678C32.6126 34.3962 34.2467 34.1588 35.9414 34.3369C38.6649 34.5743 39.0281 34.8117 40.7227 36.8296Z" fill="white"/>
<path d="M26.318 19.1424C26.0154 18.6082 25.6522 18.074 25.4706 17.4805C24.4417 14.6313 23.5944 14.572 21.5366 14.6907C20.5077 14.75 19.4183 14.6907 18.3894 14.6313C18.1473 14.6313 17.9052 14.3939 17.7236 14.2158C19.1762 14.2158 20.6288 14.2158 22.2024 14.2158C21.5971 13.2068 20.4472 14.3939 20.0235 13.3255C20.9919 13.3255 21.9603 13.3255 22.9287 13.3255C24.5628 13.3255 24.7444 13.1474 25.4101 11.7228C25.9548 10.417 26.5601 9.11113 27.1653 7.80527C27.4679 7.2117 27.8916 6.73685 28.2547 6.20264C28.981 6.61814 29.1626 6.91492 28.7994 7.68656C28.0126 9.17048 27.3469 10.7731 26.6206 12.3758C26.439 12.7319 26.439 13.1474 26.2575 13.8003C27.9521 13.8003 29.4047 13.8003 30.9178 13.8003C31.2204 13.8003 31.523 14.0378 31.8256 14.1565C30.3731 14.1565 28.86 14.2158 27.1653 14.2158C27.9521 14.9875 29.0415 14.0378 29.5257 14.9875C28.4968 14.9875 27.4679 14.9875 26.2575 14.9875C26.4995 16.0559 26.6811 16.8869 26.8022 17.6585C25.9548 18.0147 26.439 18.7269 26.318 19.1424Z" fill="white"/>
<path d="M29.5254 15.1046C29.0413 14.155 28.0124 15.1046 27.165 14.3331C28.8597 14.3331 30.3122 14.2737 31.8253 14.2737C32.1885 14.2737 32.6121 14.2737 32.9753 14.2737C33.8226 14.3331 34.3068 14.0363 34.6094 13.1461C34.8515 12.2558 35.4567 11.4842 35.8804 10.7126C36.5461 10.772 36.3646 11.3062 36.4251 11.6623C36.1225 12.4338 35.8804 13.1461 35.6383 13.9176C35.6383 13.977 35.8804 14.155 35.9409 14.3331C36.3646 15.4014 37.575 14.155 38.1198 15.164C37.3935 15.164 36.7277 15.1046 36.062 15.164C35.8804 15.164 35.6988 15.4608 35.5173 15.6388C35.8199 16.5291 36.1225 17.4194 36.4251 18.2503C36.4251 18.6657 36.4251 19.0812 36.4251 19.556C36.062 19.3779 35.8199 19.2592 35.5778 19.1405C35.2146 18.1909 34.9725 17.1819 34.5489 16.2917C34.1857 15.5201 33.5805 15.0453 32.5516 15.1046C31.4622 15.2234 30.4938 15.164 29.5254 15.1046Z" fill="white"/>
<path d="M35.3965 15.6399C35.5781 15.4618 35.7596 15.165 35.9412 15.165C36.6069 15.1057 37.2122 15.165 37.999 15.165C37.4543 14.1559 36.2438 15.3431 35.8201 14.2747C38.3621 14.3934 40.9646 14.5121 43.5066 14.6308C43.3855 15.7586 42.1751 14.6308 41.8725 15.4025C42.2961 15.9961 43.325 15.0463 43.5066 16.0554C40.8436 15.9367 38.12 15.818 35.3965 15.6399Z" fill="white"/>
<path d="M47.6829 15.1646C49.2565 15.2832 50.9512 14.9272 52.6458 15.5206C51.738 16.4702 51.1327 16.7669 50.1038 16.4702C48.4092 15.936 46.7145 16.2328 45.0198 16.1141C44.8383 16.1141 44.7172 16.1141 44.5356 16.1141C44.5356 15.8174 44.5356 15.5206 44.5356 15.2239C45.5645 15.1646 46.5935 15.1646 47.6829 15.1646Z" fill="white"/>
<path d="M26.3179 19.1417C26.4389 18.6669 25.9547 18.014 26.802 17.7766C27.1047 18.3108 27.4073 18.845 27.6494 19.4385C27.952 20.2101 28.1941 21.041 28.4967 21.9907C28.0125 22.2281 27.5283 22.5842 27.1652 21.7532C26.8626 20.9223 26.1363 20.2101 26.3179 19.1417Z" fill="white"/>
<path d="M47.6827 15.1644C46.5932 15.1644 45.5643 15.1644 44.4749 15.1644C44.4749 14.749 44.5354 14.2743 43.9302 14.215C44.0512 13.7996 44.1118 13.0875 44.2933 13.0281C45.1407 12.8501 44.6565 12.494 44.5354 12.138C44.4749 12.0193 44.717 11.7819 44.838 11.6632C44.8986 11.6039 45.1407 11.7226 45.2012 11.8413C46.0485 12.7907 45.5038 13.6809 44.9591 14.5117C45.8064 15.1644 46.9564 14.215 47.6827 15.1644Z" fill="white"/>
<path d="M44.4749 16.0547C44.6565 16.0547 44.7775 16.0547 44.9591 16.0547C45.2617 16.945 45.5643 17.7759 45.8064 18.6662C45.8669 18.9036 45.6853 19.4378 45.4432 19.5565C45.0801 19.7346 44.5959 19.6752 44.4749 19.0223C44.3539 18.3101 44.1118 17.6572 43.9907 16.945C44.5959 16.8856 44.4749 16.4108 44.4749 16.0547Z" fill="white"/>
<path d="M44.4751 16.0557C44.4751 16.412 44.5961 16.8869 43.9909 16.9463C43.8699 16.6495 43.6883 16.3526 43.5672 16.0557C43.3251 15.0464 42.3568 15.937 41.9331 15.4026C42.2357 14.6308 43.4462 15.7588 43.5672 14.6308C43.6883 14.4526 43.8093 14.3339 43.9909 14.1558C44.5961 14.2151 44.5356 14.6901 44.5356 15.1057C44.4751 15.462 44.4751 15.7588 44.4751 16.0557Z" fill="white"/>
<path d="M36.3045 11.662C36.244 11.2465 36.4255 10.7718 35.7598 10.7124C35.9413 10.2377 36.0624 9.76289 36.3045 9.28812C36.6676 8.69466 37.1518 8.81335 37.6965 9.34747C37.2729 10.0596 36.7887 10.8905 36.3045 11.662Z" fill="white"/>
<path d="M35.457 19.1411C35.6991 19.2598 35.9412 19.3785 36.3043 19.5566C36.3043 19.0817 36.3043 18.6662 36.3043 18.2507C36.607 18.8443 36.9701 19.4379 37.1517 20.0908C37.2122 20.3282 36.9701 20.803 36.728 20.8624C36.4859 20.9218 36.0017 20.7437 35.8807 20.5063C35.6386 20.1501 35.5781 19.6159 35.457 19.1411Z" fill="white"/>
</svg>
