<svg width="19" height="19" viewBox="0 0 19 19" fill="none" xmlns="http://www.w3.org/2000/svg">
<g clip-path="url(#clip0_1_1691)">
<path d="M1.60346 4.30235C1.59655 4.33989 1.59266 4.37793 1.59141 4.41597V5.19735C1.59241 5.51937 1.7924 5.80724 2.09408 5.92035V7.07008C2.09546 7.455 2.39815 7.77137 2.78256 7.78957V14.4317C2.39815 14.45 2.09546 14.7664 2.09408 15.1512V16.2975C1.79177 16.4137 1.59191 16.7037 1.59141 17.0273V17.7916C1.59141 17.9341 1.70716 18.0497 1.84965 18.0497H19.2615C19.404 18.0497 19.5196 17.9341 19.5196 17.7916V17.0273C19.5191 16.7035 19.3193 16.4135 19.0171 16.2975V15.1444C19.0157 14.7595 18.7129 14.4431 18.3286 14.4249V7.78957C18.7129 7.77137 19.0157 7.455 19.0171 7.07008V5.92035C19.3186 5.80724 19.5186 5.51937 19.5196 5.19735V4.42111C19.5185 4.38307 19.5145 4.34504 19.5076 4.3075C19.6374 4.365 19.7892 4.30649 19.8467 4.17668C19.9042 4.04699 19.8457 3.89521 19.716 3.83759L10.6744 -0.91461C10.5989 -0.954407 10.5088 -0.954407 10.4333 -0.91461L1.39179 3.83244C1.26562 3.8991 1.21729 4.05516 1.2837 4.18133C1.34446 4.29658 1.48155 4.34855 1.60346 4.30235ZM2.61044 6.36779V5.9702H5.58808V6.3644L2.61044 6.36779ZM9.24052 7.79133V14.4317C8.8561 14.45 8.55342 14.7664 8.55204 15.1512V16.2493H6.10093V15.1512C6.09955 14.7664 5.79686 14.45 5.41245 14.4317V7.78957C5.79686 7.77137 6.09955 7.455 6.10093 7.07008V5.9702H8.54852V7.06845C8.54915 7.45399 8.85209 7.77112 9.23713 7.78957L9.24052 7.79133ZM9.0684 6.36779V5.9702H12.0462V6.3644L9.0684 6.36779ZM15.6986 7.79133V14.4317C15.3142 14.45 15.0114 14.7664 15.01 15.1512V16.2493H12.559V15.1512C12.5576 14.7664 12.2548 14.45 11.8705 14.4317V7.78957C12.2548 7.77137 12.5576 7.455 12.559 7.07008V5.9702H15.0066V7.06845C15.0071 7.45399 15.31 7.77112 15.6951 7.78957L15.6986 7.79133ZM15.5265 6.36779V5.9702H18.5041V6.3644L15.5265 6.36779ZM18.5041 15.8552V16.2493H15.523V15.8552H18.5041ZM12.0462 15.8552V16.2493H9.06501V15.8552H12.0462ZM9.49525 7.27836H9.27153C9.15741 7.27836 9.06501 7.18596 9.06501 7.07184V6.88415H12.0427V7.07184C12.0427 7.18596 11.9502 7.27836 11.8361 7.27836H9.49525ZM11.3559 7.79472V14.4283H9.75349V7.79472H11.3559ZM9.49525 14.9447H11.8361C11.9502 14.9447 12.0427 15.0371 12.0427 15.1512V15.3389H9.06501V15.1512C9.06501 15.0371 9.15741 14.9447 9.27153 14.9447H9.49525ZM5.58469 15.8552V16.2493H2.60693V15.8552H5.58469ZM2.60693 7.07699V6.88415H5.58469V7.07184C5.58469 7.18596 5.49229 7.27836 5.37805 7.27836H2.8083C2.69556 7.2756 2.60592 7.18282 2.60693 7.07008V7.07699ZM4.89621 7.79987V14.4283H3.29541V7.79472L4.89621 7.79987ZM2.60693 15.1565C2.60693 15.0422 2.69933 14.9498 2.81345 14.9498H5.37805C5.49229 14.9498 5.58469 15.0422 5.58469 15.1565V15.344H2.60693V15.1565ZM19.0033 17.0377V17.5437H2.10438V17.0377C2.10438 16.8903 2.22377 16.7708 2.37116 16.7708H18.7365C18.8818 16.7708 19.0005 16.8872 19.0033 17.0325V17.0377ZM18.5007 15.1565V15.344H15.523V15.1565C15.523 15.0422 15.6154 14.9498 15.7295 14.9498H18.2994C18.4095 14.9526 18.498 15.0411 18.5007 15.1512V15.1565ZM16.2114 14.4335V7.79472H17.8139V14.4283L16.2114 14.4335ZM18.5007 7.07699C18.5007 7.19111 18.4083 7.28351 18.2942 7.28351H15.7312C15.6171 7.28351 15.5247 7.19111 15.5247 7.07699V6.88415H18.5024L18.5007 7.07699ZM10.5538 -0.39825L18.2425 3.64312H2.86517L10.5538 -0.39825ZM2.10438 4.42111C2.10438 4.27862 2.22 4.163 2.36249 4.163H18.7452C18.8877 4.163 19.0033 4.27862 19.0033 4.42111V5.20262C19.0033 5.34511 18.8877 5.46074 18.7452 5.46074H2.36249C2.22 5.46074 2.10438 5.34511 2.10438 5.20262V4.42111Z" fill="white"/>
</g>
<defs>
<clipPath id="clip0_1_1691">
<rect width="19" height="19" fill="white"/>
</clipPath>
</defs>
</svg>
