<svg width="22" height="22" viewBox="0 0 22 22" fill="none" xmlns="http://www.w3.org/2000/svg">
<g clip-path="url(#clip0_1_1658)">
<path d="M9.01367 6.68092C9.01367 6.19622 9.01367 5.71415 9.01367 5.22945C9.01367 4.84955 8.791 4.62685 8.41115 4.62685C7.84792 4.62685 7.28731 4.62685 6.72408 4.62423C6.65335 4.62423 6.58 4.61375 6.51188 4.59279C6.41496 4.56135 6.38352 4.48275 6.42806 4.39105C6.45425 4.33865 6.48831 4.28888 6.53022 4.24696C7.88983 2.88718 9.24682 1.52741 10.6064 0.170262C10.8343 -0.0576769 11.167 -0.0576769 11.3976 0.172882C12.7519 1.52741 14.1063 2.88194 15.4581 4.23648C15.534 4.31245 15.6205 4.39629 15.5733 4.51419C15.5236 4.63471 15.4004 4.62685 15.2956 4.62685C14.7638 4.62947 14.2347 4.63995 13.7029 4.62423C13.3676 4.61375 13.0689 4.82859 13.0715 5.25565C13.0768 6.22766 13.0715 7.2023 13.0742 8.17431C13.0742 8.34461 13.0191 8.48871 12.8934 8.60137C12.7886 8.69569 12.6629 8.73761 12.5214 8.73761C11.5364 8.73761 10.5488 8.73761 9.5638 8.73761C9.24158 8.73761 9.00843 8.49919 9.00843 8.17693C9.01367 7.67913 9.01367 7.17872 9.01367 6.68092Z" fill="white"/>
<path d="M9.01411 15.3295C9.01411 14.8055 9.01411 14.2815 9.01411 13.7575C9.01411 13.4012 9.2394 13.1759 9.59567 13.1759C10.5702 13.1759 11.5421 13.1759 12.5166 13.1759C12.8519 13.1759 13.0772 13.4012 13.0772 13.7366C13.0772 14.7715 13.0772 15.809 13.0772 16.8439C13.0772 17.0194 13.1139 17.1792 13.2449 17.3076C13.3549 17.4124 13.4833 17.4701 13.6352 17.4701C14.1513 17.4701 14.6647 17.4701 15.1808 17.4701C15.2437 17.4701 15.3066 17.4753 15.3668 17.491C15.4847 17.5198 15.5266 17.6142 15.469 17.7216C15.4428 17.7714 15.4061 17.8159 15.3668 17.8552C14.0439 19.1783 12.7209 20.5014 11.398 21.8245C11.1727 22.0472 10.8557 22.055 10.62 21.8428C10.5964 21.8219 10.5754 21.7983 10.5519 21.7773C9.46731 20.6926 8.38014 19.6053 7.2956 18.5207C7.07555 18.3006 6.85812 18.0805 6.63806 17.8578C6.56471 17.7818 6.4704 17.7032 6.51756 17.5827C6.56733 17.457 6.69308 17.4674 6.8031 17.4674C7.34275 17.4648 7.88241 17.4674 8.42206 17.4674C8.78095 17.4674 9.01149 17.2421 9.01149 16.8806C9.01672 16.3644 9.01411 15.8457 9.01411 15.3295Z" fill="white"/>
<path d="M4.57623 11.0065C4.57623 12.4056 4.57623 13.8073 4.57623 15.2064C4.57623 15.2797 4.57099 15.3583 4.55003 15.4291C4.52121 15.5286 4.43476 15.5679 4.34307 15.5182C4.27758 15.4841 4.21733 15.4369 4.16494 15.3845C2.842 14.0641 1.51907 12.741 0.196135 11.4153C-0.063212 11.1559 -0.0605924 10.8362 0.198755 10.5769C0.927024 9.84852 1.65529 9.12278 2.38356 8.39442C2.98347 7.79445 3.58075 7.19447 4.18327 6.59712C4.22781 6.55258 4.27758 6.51328 4.3326 6.48446C4.43738 6.42944 4.52907 6.46874 4.55789 6.5814C4.57623 6.64952 4.57885 6.72288 4.57885 6.79623C4.57623 8.20055 4.57623 9.60486 4.57623 11.0065Z" fill="white"/>
<path d="M17.5195 10.9987C17.5195 9.63629 17.5195 8.2739 17.5195 6.91151C17.5195 6.83291 17.5222 6.75431 17.5431 6.67833C17.5745 6.56305 17.6636 6.52637 17.771 6.58401C17.826 6.61283 17.8758 6.65475 17.9177 6.69929C19.2197 7.9988 20.5217 9.30094 21.821 10.6031C22.0516 10.8336 22.0568 11.1585 21.8315 11.3943C21.7267 11.5043 21.6193 11.6091 21.5119 11.7139C20.7627 12.4633 20.0108 13.2152 19.2616 13.9645C18.811 14.4151 18.3604 14.8658 17.9072 15.3138C17.8313 15.3898 17.7501 15.4762 17.6322 15.4291C17.5143 15.3819 17.5222 15.264 17.5222 15.1618C17.5195 14.5278 17.5195 13.8938 17.5195 13.2597C17.5195 12.5052 17.5195 11.7506 17.5195 10.9987Z" fill="white"/>
</g>
<defs>
<clipPath id="clip0_1_1658">
<rect width="22" height="22" fill="white"/>
</clipPath>
</defs>
</svg>
