<svg width="23" height="23" viewBox="0 0 23 23" fill="none" xmlns="http://www.w3.org/2000/svg">
<g clip-path="url(#clip0_1_1670)">
<path d="M22.0491 4.6952L11.6272 0.742075C11.5453 0.710812 11.4547 0.710812 11.3728 0.742075L0.950906 4.6952C0.882678 4.72102 0.823925 4.767 0.782456 4.82702C0.740988 4.88704 0.718768 4.95826 0.71875 5.03122V17.9687C0.71873 18.0414 0.740773 18.1125 0.781966 18.1724C0.82316 18.2323 0.881566 18.2783 0.949469 18.3044L11.3713 22.3078C11.4539 22.3393 11.5451 22.3393 11.6276 22.3078L22.0495 18.3403C22.1176 18.3144 22.1762 18.2685 22.2176 18.2086C22.259 18.1486 22.2812 18.0775 22.2812 18.0047V5.03122C22.2812 4.95826 22.259 4.88704 22.2175 4.82702C22.1761 4.767 22.1173 4.72102 22.0491 4.6952ZM11.5 1.46226L20.9088 5.03122L11.5 8.60017L8.64189 7.51593L13.115 5.82184C13.1832 5.79598 13.2419 5.74998 13.2833 5.68997C13.3248 5.62995 13.347 5.55875 13.347 5.48582C13.347 5.4129 13.3248 5.3417 13.2833 5.28168C13.2419 5.22167 13.1832 5.17567 13.115 5.14981L10.4341 4.13278C10.352 4.10166 10.2614 4.10166 10.1793 4.13278L4.94967 6.11545L2.0912 5.03122L11.5 1.46226ZM5.39062 7.05126L7.1875 7.73407V13.1017L5.39062 12.4135V7.05126ZM5.96275 6.49962L10.3069 4.85153L11.974 5.48403L7.62845 7.1314L5.96275 6.49962ZM1.4375 5.55195L4.67188 6.77886V12.6607C4.67188 12.7335 4.69398 12.8046 4.73524 12.8645C4.7765 12.9244 4.83498 12.9704 4.90295 12.9964L7.41858 13.9595C7.473 13.9803 7.53165 13.9876 7.5895 13.9807C7.64734 13.9738 7.70264 13.9529 7.75063 13.9199C7.79862 13.8868 7.83786 13.8426 7.86497 13.7911C7.89208 13.7395 7.90624 13.6821 7.90625 13.6239V8.0054L11.1406 9.23231V21.4489L1.4375 17.7218V5.55195ZM11.8594 21.4507V9.23195L21.5625 5.55195V17.757L11.8594 21.4507Z" fill="white"/>
<path d="M15.3248 17.9756L13.1636 18.7982C13.0849 18.828 13.0193 18.8844 12.978 18.9577C12.9367 19.0309 12.9224 19.1163 12.9375 19.199C12.9527 19.2817 12.9964 19.3565 13.061 19.4103C13.1256 19.4641 13.2071 19.4936 13.2911 19.4936C13.3349 19.4936 13.3783 19.4856 13.4191 19.4698L15.5804 18.6472C15.6253 18.6311 15.6665 18.6061 15.7017 18.5738C15.7369 18.5416 15.7653 18.5026 15.7852 18.4592C15.8052 18.4158 15.8163 18.3689 15.8179 18.3212C15.8195 18.2735 15.8116 18.2259 15.7946 18.1813C15.7776 18.1367 15.7519 18.0959 15.719 18.0613C15.6861 18.0267 15.6466 17.999 15.6029 17.9799C15.5591 17.9607 15.512 17.9505 15.4643 17.9498C15.4166 17.949 15.3692 17.9578 15.3248 17.9756Z" fill="white"/>
<path d="M17.4788 17.1555L16.7554 17.4308C16.6767 17.4606 16.6111 17.517 16.5698 17.5903C16.5285 17.6635 16.5142 17.7489 16.5293 17.8316C16.5445 17.9143 16.5882 17.9891 16.6528 18.0429C16.7174 18.0967 16.7989 18.1262 16.8829 18.1262C16.9267 18.1262 16.9701 18.1182 17.0109 18.1025L17.7343 17.8272C17.7792 17.811 17.8205 17.7861 17.8556 17.7538C17.8908 17.7215 17.9192 17.6825 17.9391 17.6391C17.9591 17.5958 17.9702 17.5488 17.9718 17.5011C17.9734 17.4534 17.9655 17.4059 17.9485 17.3612C17.9315 17.3166 17.9059 17.2758 17.8729 17.2412C17.84 17.2067 17.8005 17.179 17.7568 17.1598C17.7131 17.1407 17.666 17.1304 17.6182 17.1297C17.5705 17.1289 17.5231 17.1377 17.4788 17.1555Z" fill="white"/>
<path d="M15.3248 16.5381L13.1636 17.3607C13.0849 17.3905 13.0193 17.4469 12.978 17.5202C12.9367 17.5934 12.9224 17.6788 12.9375 17.7615C12.9527 17.8442 12.9964 17.919 13.061 17.9728C13.1256 18.0266 13.2071 18.0561 13.2911 18.0561C13.3349 18.0561 13.3783 18.0481 13.4191 18.0323L15.5804 17.2097C15.6253 17.1936 15.6665 17.1686 15.7017 17.1363C15.7369 17.1041 15.7653 17.0651 15.7852 17.0217C15.8052 16.9783 15.8163 16.9314 15.8179 16.8837C15.8195 16.836 15.8116 16.7884 15.7946 16.7438C15.7776 16.6992 15.7519 16.6584 15.719 16.6238C15.6861 16.5892 15.6466 16.5615 15.6029 16.5424C15.5591 16.5232 15.512 16.513 15.4643 16.5123C15.4166 16.5115 15.3692 16.5203 15.3248 16.5381Z" fill="white"/>
<path d="M17.4788 15.718L16.7554 15.9933C16.6767 16.0231 16.6111 16.0795 16.5698 16.1528C16.5285 16.226 16.5142 16.3114 16.5293 16.3941C16.5445 16.4768 16.5882 16.5516 16.6528 16.6054C16.7174 16.6592 16.7989 16.6887 16.8829 16.6887C16.9267 16.6887 16.9701 16.6807 17.0109 16.6649L17.7343 16.3897C17.7792 16.3735 17.8205 16.3486 17.8556 16.3163C17.8908 16.284 17.9192 16.245 17.9391 16.2016C17.9591 16.1583 17.9702 16.1113 17.9718 16.0636C17.9734 16.0159 17.9655 15.9684 17.9485 15.9237C17.9315 15.8791 17.9059 15.8383 17.8729 15.8037C17.84 15.7692 17.8005 15.7415 17.7568 15.7223C17.7131 15.7032 17.666 15.6929 17.6182 15.6922C17.5705 15.6914 17.5231 15.7002 17.4788 15.718Z" fill="white"/>
<path d="M15.3248 15.1006L13.1636 15.9232C13.0849 15.953 13.0193 16.0094 12.978 16.0827C12.9367 16.1559 12.9224 16.2413 12.9375 16.324C12.9527 16.4067 12.9964 16.4815 13.061 16.5353C13.1256 16.5891 13.2071 16.6186 13.2911 16.6186C13.3349 16.6186 13.3783 16.6106 13.4191 16.5948L15.5804 15.7722C15.6253 15.7561 15.6665 15.7311 15.7017 15.6988C15.7369 15.6666 15.7653 15.6276 15.7852 15.5842C15.8052 15.5408 15.8163 15.4939 15.8179 15.4462C15.8195 15.3985 15.8116 15.3509 15.7946 15.3063C15.7776 15.2617 15.7519 15.2209 15.719 15.1863C15.6861 15.1517 15.6466 15.124 15.6029 15.1049C15.5591 15.0857 15.512 15.0755 15.4643 15.0748C15.4166 15.074 15.3692 15.0828 15.3248 15.1006Z" fill="white"/>
<path d="M17.4788 14.2805L16.7554 14.5558C16.6767 14.5856 16.6111 14.642 16.5698 14.7153C16.5285 14.7885 16.5142 14.8739 16.5293 14.9566C16.5445 15.0393 16.5882 15.1141 16.6528 15.1679C16.7174 15.2217 16.7989 15.2512 16.8829 15.2512C16.9267 15.2512 16.9701 15.2432 17.0109 15.2274L17.7343 14.9522C17.7792 14.936 17.8205 14.9111 17.8556 14.8788C17.8908 14.8465 17.9192 14.8075 17.9391 14.7641C17.9591 14.7208 17.9702 14.6738 17.9718 14.6261C17.9734 14.5784 17.9655 14.5309 17.9485 14.4862C17.9315 14.4416 17.9059 14.4008 17.8729 14.3662C17.84 14.3317 17.8005 14.304 17.7568 14.2848C17.7131 14.2657 17.666 14.2554 17.6182 14.2547C17.5705 14.2539 17.5231 14.2627 17.4788 14.2805Z" fill="white"/>
</g>
<defs>
<clipPath id="clip0_1_1670">
<rect width="23" height="23" fill="white"/>
</clipPath>
</defs>
</svg>
