<svg width="12" height="12" viewBox="0 0 12 12" fill="none" xmlns="http://www.w3.org/2000/svg">
<g clip-path="url(#clip0_1_7029)">
<path d="M11.9752 9.29781C11.9413 9.19554 11.7253 9.04488 11.3275 8.84619C11.2198 8.78357 11.0662 8.69846 10.8675 8.59049C10.6687 8.48252 10.4882 8.38303 10.3264 8.2921C10.1642 8.20121 10.0123 8.11314 9.87035 8.02804C9.84766 8.01099 9.77665 7.96135 9.65733 7.87879C9.5379 7.79646 9.43718 7.73535 9.35464 7.6955C9.27229 7.65589 9.19127 7.63595 9.11172 7.63595C8.99811 7.63595 8.85619 7.71696 8.68581 7.87879C8.51542 8.04082 8.35912 8.21682 8.21715 8.40733C8.07515 8.59774 7.92455 8.77375 7.76562 8.93569C7.60646 9.09769 7.47568 9.17861 7.37353 9.17861C7.32225 9.17861 7.25831 9.16432 7.18168 9.13611C7.10508 9.10772 7.04681 9.08339 7.00681 9.06378C6.96717 9.04375 6.89914 9.00411 6.80248 8.94425C6.70565 8.88458 6.6518 8.8519 6.64045 8.84619C5.86209 8.41428 5.19454 7.91995 4.63767 7.36332C4.08098 6.80636 3.58659 6.13887 3.15479 5.36041C3.14912 5.34904 3.11638 5.29504 3.05676 5.1985C2.99706 5.10188 2.95727 5.03379 2.93739 4.99391C2.91751 4.95417 2.89336 4.89591 2.865 4.81922C2.83664 4.74253 2.8224 4.67865 2.8224 4.62746C2.8224 4.52525 2.90339 4.3945 3.06533 4.23539C3.22724 4.07638 3.40342 3.92575 3.59369 3.78381C3.78411 3.64187 3.96011 3.48557 4.12208 3.31518C4.28399 3.1447 4.36495 3.00273 4.36495 2.88912C4.36495 2.80963 4.34507 2.72858 4.30534 2.64622C4.26558 2.56368 4.2045 2.46297 4.12208 2.34359C4.03963 2.22428 3.98993 2.15332 3.97286 2.13049C3.88772 1.98855 3.79975 1.83658 3.70874 1.67464C3.61772 1.51272 3.51838 1.33225 3.41038 1.13341C3.30247 0.934661 3.2173 0.781198 3.15473 0.673257C2.95599 0.275613 2.80545 0.0596122 2.70315 0.0256419C2.66336 0.00859706 2.60366 0 2.52419 0C2.3707 0 2.17046 0.0283583 1.92332 0.0852542C1.6761 0.14206 1.48156 0.201643 1.3395 0.26424C1.05541 0.383494 0.754304 0.730063 0.436094 1.30383C0.146331 1.8378 0.00146484 2.36631 0.00146484 2.88897C0.00146484 3.04225 0.0114052 3.19139 0.0312859 3.3364C0.0511666 3.48127 0.0866891 3.64465 0.137883 3.8265C0.188988 4.00829 0.230212 4.14333 0.261377 4.23127C0.292571 4.31928 0.35081 4.47692 0.436064 4.70426C0.521199 4.93155 0.572393 5.07068 0.589438 5.12182C0.788275 5.67866 1.02407 6.17576 1.29675 6.61329C1.74541 7.34051 2.35769 8.09207 3.13321 8.86766C3.90877 9.64318 4.66017 10.2554 5.38746 10.7043C5.82493 10.9769 6.32221 11.2127 6.87896 11.4117C6.93013 11.4286 7.06926 11.4797 7.29646 11.5651C7.52374 11.6503 7.68144 11.7086 7.76944 11.7398C7.85747 11.7711 7.99255 11.8124 8.17419 11.8636C8.35622 11.9147 8.51945 11.9503 8.66431 11.9703C8.80927 11.9899 8.95843 12 9.11175 12C9.63438 12 10.1629 11.8551 10.697 11.5653C11.2707 11.2473 11.6172 10.9461 11.7365 10.6618C11.7992 10.5199 11.8587 10.3253 11.9155 10.0781C11.9724 9.83095 12.0007 9.63074 12.0007 9.47727C12.0009 9.39748 11.9924 9.33793 11.9752 9.29781Z" fill="#337D5A"/>
</g>
<defs>
<clipPath id="clip0_1_7029">
<rect width="12" height="12" fill="white"/>
</clipPath>
</defs>
</svg>
