<svg width="96" height="32" viewBox="0 0 96 32" fill="none" xmlns="http://www.w3.org/2000/svg">
<path d="M4.84033 0C4.84033 0 0 0.842679 0 5.09609C0 9.34914 0 31.113 0 31.113C0 31.113 0.537449 25.8718 4.84033 25.8718H96L86.7039 12.4749L96 0H4.84033Z" fill="#E1843E"/>
<path d="M12.71 17V9.9H17.97V11.31H14.35V12.73H16.1C16.9067 12.73 17.5133 12.92 17.92 13.3C18.3333 13.6733 18.54 14.18 18.54 14.82C18.54 15.26 18.45 15.6433 18.27 15.97C18.0967 16.2967 17.8367 16.55 17.49 16.73C17.1433 16.91 16.71 17 16.19 17H12.71ZM14.35 15.59H15.96C16.18 15.59 16.3533 15.55 16.48 15.47C16.6133 15.39 16.7067 15.29 16.76 15.17C16.82 15.0433 16.85 14.91 16.85 14.77C16.85 14.6367 16.8233 14.51 16.77 14.39C16.7233 14.27 16.6333 14.1767 16.5 14.11C16.3667 14.0367 16.18 14 15.94 14H14.35V15.59ZM25.0083 15.56V17H20.0183V9.9H24.9183V11.34H21.6583V12.72H24.4583V14.05H21.6583V15.56H25.0083ZM26.0774 13.39C26.0774 12.9567 26.1574 12.5333 26.3174 12.12C26.4774 11.7 26.7108 11.32 27.0174 10.98C27.3241 10.64 27.6974 10.37 28.1374 10.17C28.5774 9.96333 29.0774 9.86 29.6374 9.86C30.3041 9.86 30.8808 10.0033 31.3674 10.29C31.8608 10.5767 32.2274 10.95 32.4674 11.41L31.2074 12.29C31.1008 12.0367 30.9574 11.84 30.7774 11.7C30.6041 11.56 30.4108 11.4633 30.1974 11.41C29.9908 11.35 29.7908 11.32 29.5974 11.32C29.2841 11.32 29.0108 11.3833 28.7774 11.51C28.5441 11.63 28.3508 11.7933 28.1974 12C28.0441 12.2067 27.9308 12.4367 27.8574 12.69C27.7841 12.9433 27.7474 13.1967 27.7474 13.45C27.7474 13.73 27.7908 14 27.8774 14.26C27.9641 14.52 28.0874 14.75 28.2474 14.95C28.4141 15.15 28.6141 15.31 28.8474 15.43C29.0808 15.5433 29.3374 15.6 29.6174 15.6C29.8174 15.6 30.0208 15.5667 30.2274 15.5C30.4341 15.4333 30.6241 15.33 30.7974 15.19C30.9774 15.0433 31.1141 14.8533 31.2074 14.62L32.5474 15.41C32.4074 15.7567 32.1774 16.0533 31.8574 16.3C31.5374 16.5467 31.1741 16.7367 30.7674 16.87C30.3674 16.9967 29.9708 17.06 29.5774 17.06C29.0641 17.06 28.5908 16.9567 28.1574 16.75C27.7308 16.5367 27.3608 16.2567 27.0474 15.91C26.7408 15.5567 26.5008 15.1633 26.3274 14.73C26.1608 14.29 26.0774 13.8433 26.0774 13.39ZM34.0022 17V9.9H39.9122V17H38.2722V11.34H35.6422V17H34.0022ZM46.3262 17V11.34H44.5662L44.5262 12.43C44.4928 13.35 44.4128 14.11 44.2862 14.71C44.1662 15.31 43.9862 15.78 43.7462 16.12C43.5062 16.46 43.1995 16.7033 42.8262 16.85C42.4595 16.99 42.0195 17.06 41.5062 17.06V15.64C41.7395 15.64 41.9428 15.5933 42.1162 15.5C42.2895 15.4 42.4328 15.22 42.5462 14.96C42.6662 14.7 42.7595 14.33 42.8262 13.85C42.8995 13.3633 42.9495 12.73 42.9762 11.95L43.0462 9.9H47.9662V17H46.3262ZM51.718 9.9H53.488L55.928 17H54.248L53.698 15.41H51.488L50.948 17H49.268L51.718 9.9ZM53.428 14.28L52.598 11.55L51.748 14.28H53.428ZM61.9927 11.34H59.8327V17H58.1927V11.34H56.0227V9.9H61.9927V11.34ZM69.5037 9.9V17H67.8637V14.09H65.0337V17H63.3937V9.9H65.0337V12.65H67.8637V9.9H69.5037ZM74.5744 17.06C74.041 17.06 73.5577 16.96 73.1244 16.76C72.6977 16.5533 72.3277 16.28 72.0144 15.94C71.7077 15.5933 71.471 15.2067 71.3044 14.78C71.1377 14.3467 71.0544 13.9 71.0544 13.44C71.0544 12.9667 71.141 12.5167 71.3144 12.09C71.4944 11.6633 71.741 11.2833 72.0544 10.95C72.3744 10.61 72.751 10.3433 73.1844 10.15C73.6177 9.95667 74.091 9.86 74.6044 9.86C75.131 9.86 75.6077 9.96333 76.0344 10.17C76.4677 10.37 76.8377 10.6433 77.1444 10.99C77.4577 11.3367 77.6977 11.7267 77.8644 12.16C78.031 12.5867 78.1144 13.0233 78.1144 13.47C78.1144 13.9433 78.0277 14.3933 77.8544 14.82C77.681 15.2467 77.4344 15.63 77.1144 15.97C76.7944 16.3033 76.4177 16.57 75.9844 16.77C75.5577 16.9633 75.0877 17.06 74.5744 17.06ZM72.7244 13.46C72.7244 13.7333 72.7644 14 72.8444 14.26C72.9244 14.5133 73.041 14.74 73.1944 14.94C73.3544 15.14 73.551 15.3 73.7844 15.42C74.0177 15.54 74.2844 15.6 74.5844 15.6C74.8977 15.6 75.171 15.54 75.4044 15.42C75.6377 15.2933 75.831 15.1267 75.9844 14.92C76.1377 14.7133 76.251 14.4833 76.3244 14.23C76.4044 13.97 76.4444 13.7067 76.4444 13.44C76.4444 13.1667 76.4044 12.9033 76.3244 12.65C76.2444 12.3967 76.1244 12.17 75.9644 11.97C75.8044 11.7633 75.6077 11.6033 75.3744 11.49C75.141 11.3767 74.8777 11.32 74.5844 11.32C74.271 11.32 73.9977 11.38 73.7644 11.5C73.5377 11.62 73.3444 11.7833 73.1844 11.99C73.031 12.19 72.9144 12.42 72.8344 12.68C72.761 12.9333 72.7244 13.1933 72.7244 13.46Z" fill="white"/>
</svg>
