<svg width="37" height="37" viewBox="0 0 37 37" fill="none" xmlns="http://www.w3.org/2000/svg">
<g clip-path="url(#clip0_1_2091)">
<path d="M17.2672 10.4833C17.2651 10.2729 17.2268 10.0642 17.1537 9.86667H19.8474C19.7742 10.0642 19.736 10.2729 19.7339 10.4833C19.7339 11.505 20.5622 12.3333 21.5839 12.3333C22.6055 12.3333 23.4339 11.505 23.4339 10.4833C23.4317 10.2729 23.3935 10.0642 23.3203 9.86667H24.0505C24.3685 9.86817 24.6353 9.62789 24.6672 9.31173L25.2839 3.14506C25.3013 2.97102 25.2441 2.79788 25.1267 2.66841C25.0089 2.53923 24.8421 2.46576 24.6672 2.46667H12.6045L12.3278 0.529045C12.2842 0.225529 12.024 0 11.7172 0H9.86719V1.23333H11.1824L12.3399 9.33762C12.3835 9.64114 12.6437 9.86667 12.9505 9.86667H13.6807C13.6075 10.0642 13.5693 10.2729 13.5672 10.4833C13.5672 11.505 14.3955 12.3333 15.4172 12.3333C16.4388 12.3333 17.2672 11.505 17.2672 10.4833ZM22.2005 10.4833C22.2005 10.8239 21.9244 11.1 21.5839 11.1C21.2433 11.1 20.9672 10.8239 20.9672 10.4833C20.9672 10.1428 21.2433 9.86667 21.5839 9.86667C21.9244 9.86667 22.2005 10.1428 22.2005 10.4833ZM12.781 3.7H23.9888L23.4956 8.63333H13.4853L12.781 3.7ZM15.4172 11.1C15.0766 11.1 14.8005 10.8239 14.8005 10.4833C14.8005 10.1428 15.0766 9.86667 15.4172 9.86667C15.7577 9.86667 16.0339 10.1428 16.0339 10.4833C16.0339 10.8239 15.7577 11.1 15.4172 11.1Z" fill="#C4C4C4"/>
<path d="M36.5333 17.2851L27.1333 14.9352V12.95C27.1333 12.6095 26.8572 12.3334 26.5167 12.3334H10.4833C10.1428 12.3334 9.86667 12.6095 9.86667 12.95V14.9352L0.466716 17.2851C0.192407 17.354 0 17.6006 0 17.8834V36.3834C0 36.7239 0.276115 37 0.616667 37H36.3833C36.7239 37 37 36.7239 37 36.3834V17.8834C37 17.6006 36.8076 17.354 36.5333 17.2851ZM1.23333 18.3648L9.86667 16.2065V35.7667H1.23333V18.3648ZM11.1 13.5667H25.9V35.7667H22.8167V30.2167C22.8167 29.8762 22.5406 29.6 22.2 29.6H14.8C14.4594 29.6 14.1833 29.8762 14.1833 30.2167V35.7667H11.1V13.5667ZM15.4167 30.8334H17.8833V35.7667H15.4167V30.8334ZM19.1167 35.7667V30.8334H21.5833V35.7667H19.1167ZM35.7667 35.7667H27.1333V16.2065L35.7667 18.3648V35.7667Z" fill="#C4C4C4"/>
<path d="M17.2663 28.3666C17.6069 28.3666 17.883 28.0905 17.883 27.75V25.2833C17.883 24.9427 17.6069 24.6666 17.2663 24.6666H12.9497C12.6091 24.6666 12.333 24.9427 12.333 25.2833V27.75C12.333 28.0905 12.6091 28.3666 12.9497 28.3666H17.2663ZM13.5663 25.9H16.6497V27.1333H13.5663V25.9Z" fill="#C4C4C4"/>
<path d="M19.7339 28.3666H24.0505C24.3911 28.3666 24.6672 28.0905 24.6672 27.75V25.2833C24.6672 24.9427 24.3911 24.6666 24.0505 24.6666H19.7339C19.3933 24.6666 19.1172 24.9427 19.1172 25.2833V27.75C19.1172 28.0905 19.3933 28.3666 19.7339 28.3666ZM20.3505 25.9H23.4338V27.1333H20.3505V25.9Z" fill="#C4C4C4"/>
<path d="M12.9497 23.4334H17.2663C17.6069 23.4334 17.883 23.1573 17.883 22.8167V20.3501C17.883 20.0095 17.6069 19.7334 17.2663 19.7334H12.9497C12.6091 19.7334 12.333 20.0095 12.333 20.3501V22.8167C12.333 23.1573 12.6091 23.4334 12.9497 23.4334ZM13.5663 20.9667H16.6497V22.2001H13.5663V20.9667Z" fill="#C4C4C4"/>
<path d="M19.7339 23.4334H24.0505C24.3911 23.4334 24.6672 23.1573 24.6672 22.8167V20.3501C24.6672 20.0095 24.3911 19.7334 24.0505 19.7334H19.7339C19.3933 19.7334 19.1172 20.0095 19.1172 20.3501V22.8167C19.1172 23.1573 19.3933 23.4334 19.7339 23.4334ZM20.3505 20.9667H23.4338V22.2001H20.3505V20.9667Z" fill="#C4C4C4"/>
<path d="M12.9497 18.5H17.2663C17.6069 18.5 17.883 18.2239 17.883 17.8834V15.4167C17.883 15.0762 17.6069 14.8 17.2663 14.8H12.9497C12.6091 14.8 12.333 15.0762 12.333 15.4167V17.8834C12.333 18.2239 12.6091 18.5 12.9497 18.5ZM13.5663 16.0334H16.6497V17.2667H13.5663V16.0334Z" fill="#C4C4C4"/>
<path d="M19.7339 18.5H24.0505C24.3911 18.5 24.6672 18.2239 24.6672 17.8834V15.4167C24.6672 15.0762 24.3911 14.8 24.0505 14.8H19.7339C19.3933 14.8 19.1172 15.0762 19.1172 15.4167V17.8834C19.1172 18.2239 19.3933 18.5 19.7339 18.5ZM20.3505 16.0334H23.4338V17.2667H20.3505V16.0334Z" fill="#C4C4C4"/>
<path d="M28.9839 28.3666H33.9172C34.2577 28.3666 34.5339 28.0905 34.5339 27.75V25.2833C34.5339 24.9427 34.2577 24.6666 33.9172 24.6666H28.9839C28.6433 24.6666 28.3672 24.9427 28.3672 25.2833V27.75C28.3672 28.0905 28.6433 28.3666 28.9839 28.3666ZM29.6005 25.9H33.3005V27.1333H29.6005V25.9Z" fill="#C4C4C4"/>
<path d="M28.9839 23.4334H33.9172C34.2577 23.4334 34.5339 23.1573 34.5339 22.8167V20.3501C34.5339 20.0095 34.2577 19.7334 33.9172 19.7334H28.9839C28.6433 19.7334 28.3672 20.0095 28.3672 20.3501V22.8167C28.3672 23.1573 28.6433 23.4334 28.9839 23.4334ZM29.6005 20.9667H33.3005V22.2001H29.6005V20.9667Z" fill="#C4C4C4"/>
<path d="M28.9839 34.5333H33.9172C34.2577 34.5333 34.5339 34.2572 34.5339 33.9166V30.2166C34.5339 29.8761 34.2577 29.6 33.9172 29.6H28.9839C28.6433 29.6 28.3672 29.8761 28.3672 30.2166V33.9166C28.3672 34.2572 28.6433 34.5333 28.9839 34.5333ZM29.6005 30.8333H33.3005V33.3H29.6005V30.8333Z" fill="#C4C4C4"/>
<path d="M8.0168 24.6666H3.08346C2.74291 24.6666 2.4668 24.9427 2.4668 25.2833V27.75C2.4668 28.0905 2.74291 28.3666 3.08346 28.3666H8.0168C8.35735 28.3666 8.63346 28.0905 8.63346 27.75V25.2833C8.63346 24.9427 8.35735 24.6666 8.0168 24.6666ZM7.40013 27.1333H3.70013V25.9H7.40013V27.1333Z" fill="#C4C4C4"/>
<path d="M8.0168 19.7334H3.08346C2.74291 19.7334 2.4668 20.0095 2.4668 20.3501V22.8167C2.4668 23.1573 2.74291 23.4334 3.08346 23.4334H8.0168C8.35735 23.4334 8.63346 23.1573 8.63346 22.8167V20.3501C8.63346 20.0095 8.35735 19.7334 8.0168 19.7334ZM7.40013 22.2001H3.70013V20.9667H7.40013V22.2001Z" fill="#C4C4C4"/>
<path d="M8.0168 29.6H3.08346C2.74291 29.6 2.4668 29.8761 2.4668 30.2166V33.9166C2.4668 34.2572 2.74291 34.5333 3.08346 34.5333H8.0168C8.35735 34.5333 8.63346 34.2572 8.63346 33.9166V30.2166C8.63346 29.8761 8.35735 29.6 8.0168 29.6ZM7.40013 33.3H3.70013V30.8333H7.40013V33.3Z" fill="#C4C4C4"/>
</g>
<defs>
<clipPath id="clip0_1_2091">
<rect width="37" height="37" fill="white"/>
</clipPath>
</defs>
</svg>
