<svg width="12" height="12" viewBox="0 0 12 12" fill="none" xmlns="http://www.w3.org/2000/svg">
<g clip-path="url(#clip0_1_6036)">
<path d="M11.9753 9.29781C11.9414 9.19554 11.7255 9.04488 11.3277 8.84619C11.2199 8.78357 11.0664 8.69846 10.8677 8.59049C10.6688 8.48252 10.4883 8.38303 10.3265 8.2921C10.1643 8.20121 10.0124 8.11314 9.87047 8.02804C9.84778 8.01099 9.77677 7.96135 9.65746 7.87879C9.53802 7.79646 9.4373 7.73535 9.35477 7.6955C9.27241 7.65589 9.19139 7.63595 9.11184 7.63595C8.99823 7.63595 8.85632 7.71696 8.68593 7.87879C8.51554 8.04082 8.35924 8.21682 8.21727 8.40733C8.07527 8.59774 7.92467 8.77375 7.76574 8.93569C7.60658 9.09769 7.4758 9.17861 7.37365 9.17861C7.32237 9.17861 7.25843 9.16432 7.1818 9.13611C7.1052 9.10772 7.04694 9.08339 7.00694 9.06378C6.96729 9.04375 6.89926 9.00411 6.80261 8.94425C6.70577 8.88458 6.65192 8.8519 6.64057 8.84619C5.86221 8.41428 5.19466 7.91995 4.63779 7.36332C4.0811 6.80636 3.58671 6.13887 3.15492 5.36041C3.14924 5.34904 3.1165 5.29504 3.05689 5.1985C2.99718 5.10188 2.95739 5.03379 2.93751 4.99391C2.91763 4.95417 2.89348 4.89591 2.86512 4.81922C2.83677 4.74253 2.82253 4.67865 2.82253 4.62746C2.82253 4.52525 2.90351 4.3945 3.06545 4.23539C3.22736 4.07638 3.40354 3.92575 3.59381 3.78381C3.78423 3.64187 3.96023 3.48557 4.1222 3.31518C4.28412 3.1447 4.36507 3.00273 4.36507 2.88912C4.36507 2.80963 4.34519 2.72858 4.30546 2.64622C4.2657 2.56368 4.20462 2.46297 4.1222 2.34359C4.03976 2.22428 3.99005 2.15332 3.97298 2.13049C3.88784 1.98855 3.79987 1.83658 3.70886 1.67464C3.61784 1.51272 3.5185 1.33225 3.4105 1.13341C3.30259 0.934661 3.21742 0.781198 3.15486 0.673257C2.95611 0.275613 2.80557 0.0596122 2.70327 0.0256419C2.66348 0.00859706 2.60378 0 2.52432 0C2.37082 0 2.17058 0.0283583 1.92345 0.0852542C1.67622 0.14206 1.48168 0.201643 1.33962 0.26424C1.05553 0.383494 0.754426 0.730063 0.436216 1.30383C0.146453 1.8378 0.00158691 2.36631 0.00158691 2.88897C0.00158691 3.04225 0.0115273 3.19139 0.031408 3.3364C0.0512886 3.48127 0.0868112 3.64465 0.138005 3.8265C0.18911 4.00829 0.230334 4.14333 0.261499 4.23127C0.292693 4.31928 0.350932 4.47692 0.436186 4.70426C0.521321 4.93155 0.572515 5.07068 0.58956 5.12182C0.788397 5.67866 1.02419 6.17576 1.29688 6.61329C1.74554 7.34051 2.35781 8.09207 3.13333 8.86766C3.90889 9.64318 4.6603 10.2554 5.38758 10.7043C5.82505 10.9769 6.32233 11.2127 6.87908 11.4117C6.93025 11.4286 7.06938 11.4797 7.29658 11.5651C7.52386 11.6503 7.68156 11.7086 7.76956 11.7398C7.85759 11.7711 7.99267 11.8124 8.17431 11.8636C8.35634 11.9147 8.51957 11.9503 8.66443 11.9703C8.80939 11.9899 8.95856 12 9.11187 12C9.6345 12 10.163 11.8551 10.6971 11.5653C11.2708 11.2473 11.6173 10.9461 11.7366 10.6618C11.7993 10.5199 11.8588 10.3253 11.9156 10.0781C11.9726 9.83095 12.0009 9.63074 12.0009 9.47727C12.001 9.39748 11.9925 9.33793 11.9753 9.29781Z" fill="#337D5A"/>
</g>
<defs>
<clipPath id="clip0_1_6036">
<rect width="12" height="12" fill="white"/>
</clipPath>
</defs>
</svg>
