<svg width="31" height="31" viewBox="0 0 31 31" fill="none" xmlns="http://www.w3.org/2000/svg">
<circle cx="15.5" cy="15.5" r="15.5" fill="#337D5A"/>
<g clip-path="url(#clip0_1_659)">
<path d="M18.2704 22.2614C18.161 22.2614 18.0524 22.229 17.9593 22.1659L14.4391 19.7781L12.5511 21.1366C12.403 21.2431 12.2122 21.2699 12.0402 21.2084C11.8685 21.1468 11.7381 21.0045 11.6915 20.8282L10.7435 17.2355L7.35623 15.9403C7.14299 15.8588 7.00156 15.6548 7.00001 15.4264C6.99846 15.1981 7.13708 14.9922 7.34929 14.9077L20.2291 9.78278C20.2875 9.75795 20.3493 9.74362 20.4117 9.73978C20.434 9.73845 20.4564 9.73845 20.4787 9.7397C20.6078 9.74739 20.7347 9.8 20.8337 9.89709C20.844 9.90714 20.8537 9.91741 20.8629 9.92812C20.945 10.0218 20.99 10.136 20.9985 10.2524C21.0006 10.2817 21.0005 10.3113 20.9979 10.3409C20.9961 10.3621 20.9931 10.3831 20.9888 10.404L18.8147 21.811C18.7798 21.9942 18.6551 22.1476 18.4828 22.2191C18.4144 22.2474 18.3422 22.2614 18.2704 22.2614ZM14.7482 18.6484L17.8838 20.7753L19.5754 11.8995L13.4658 17.7785L14.7334 18.6385C14.7385 18.6416 14.7434 18.645 14.7482 18.6484ZM12.1379 18.1755L12.5577 19.7663L13.4623 19.1154L12.2778 18.312C12.2228 18.2747 12.1757 18.2283 12.1379 18.1755ZM9.07896 15.4123L11.4048 16.3016C11.5715 16.3653 11.6972 16.5054 11.7427 16.6778L12.0377 17.7957C12.0512 17.6668 12.1097 17.5454 12.2046 17.454L18.0263 11.8522L9.07896 15.4123Z" fill="white"/>
</g>
<defs>
<clipPath id="clip0_1_659">
<rect width="14" height="14" fill="white" transform="translate(7 9)"/>
</clipPath>
</defs>
</svg>
