<svg width="45" height="45" viewBox="0 0 45 45" fill="none" xmlns="http://www.w3.org/2000/svg">
<g clip-path="url(#clip0_1_1740)">
<path d="M10.5 30.75C9.2574 30.75 8.25 31.7574 8.25 33C8.25 34.2426 9.25731 35.25 10.5 35.25C11.7427 35.25 12.75 34.2427 12.75 33C12.7486 31.7579 11.7421 30.7513 10.5 30.75ZM10.5 33.75C10.0858 33.75 9.75003 33.4142 9.75003 33C9.75003 32.5858 10.0858 32.25 10.5 32.25C10.9142 32.25 11.25 32.5858 11.25 33C11.2495 33.4141 10.9141 33.7495 10.5 33.75Z" fill="#C4C4C4"/>
<path d="M34.5 30.75C33.2574 30.75 32.25 31.7574 32.25 33C32.25 34.2426 33.2574 35.25 34.5 35.25C35.7426 35.25 36.75 34.2427 36.75 33C36.7487 31.7579 35.7421 30.7513 34.5 30.75ZM34.5 33.75C34.0858 33.75 33.75 33.4142 33.75 33C33.75 32.5858 34.0859 32.25 34.5 32.25C34.9142 32.25 35.25 32.5858 35.25 33C35.2496 33.4141 34.9141 33.7495 34.5 33.75Z" fill="#C4C4C4"/>
<path d="M44.4284 20.0742L39.2619 14.2559C38.8339 13.7739 38.2197 13.4987 37.5751 13.5H30.75V9C30.7487 7.75793 29.7421 6.75132 28.5 6.75H2.25C1.00793 6.75132 0.00131843 7.75793 7.32452e-08 9V28.5C-8.78174e-05 28.6989 0.0789259 28.8897 0.219639 29.0305C0.360264 29.1711 0.551074 29.2501 0.750059 29.2501H1.50003V31.5001C1.50135 32.7422 2.50796 33.7488 3.75003 33.7501H5.30991C5.67958 36.3323 7.89144 38.2501 10.5 38.2501C13.1086 38.2501 15.3205 36.3323 15.6901 33.7501H29.31C29.6797 36.3323 31.8916 38.2501 34.5001 38.2501C37.1087 38.2501 39.3206 36.3323 39.6903 33.7501H42.75C43.9921 33.7488 44.9987 32.7422 45 31.5001V21.5699C44.9995 21.018 44.796 20.4857 44.4284 20.0742ZM1.50003 27.75V9C1.50047 8.58595 1.83595 8.25038 2.25 8.25003H28.5C28.9141 8.25047 29.2496 8.58595 29.25 9V27.75H1.50003ZM5.30991 32.25H3.75003C3.33598 32.2495 3.00041 31.9141 3.00006 31.5V29.25H6.83297C6.00908 30.0553 5.47374 31.1097 5.30991 32.25ZM10.5 36.75C8.42898 36.75 6.75 35.071 6.75 32.9999C6.75 30.9289 8.42898 29.25 10.5 29.25C12.5711 29.25 14.2501 30.929 14.2501 33C14.2476 35.07 12.57 36.7476 10.5 36.75ZM18 32.25H15.6901C15.5262 31.1097 14.991 30.0552 14.1671 29.25H18V32.25ZM24.75 32.25H19.5V29.25H24.75V32.25ZM29.3099 32.25H26.25V29.25H30.8329C30.009 30.0553 29.4738 31.1097 29.3099 32.25ZM34.5 36.75C32.4289 36.75 30.7499 35.071 30.7499 32.9999C30.7499 30.9289 32.4288 29.2499 34.5 29.2499C36.571 29.2499 38.25 30.9289 38.25 32.9999C38.2475 35.07 36.5701 36.7476 34.5 36.75ZM43.5 31.5C43.4995 31.9141 43.1641 32.2496 42.75 32.25H39.6901C39.3161 29.6701 37.1069 27.7546 34.5 27.75H30.7499V15H33.75V22.5C33.7513 23.7421 34.7579 24.7487 36 24.75H43.5V31.5ZM43.5 23.25H36C35.5859 23.2495 35.2504 22.9141 35.25 22.5V15H37.5751C37.7904 14.9988 37.9959 15.09 38.1394 15.2505L43.3078 21.0711C43.4308 21.2082 43.4992 21.3856 43.5001 21.5699V23.25H43.5Z" fill="#C4C4C4"/>
<g clip-path="url(#clip1_1_1740)">
<path d="M19.6238 12.8572C19.3726 12.5548 18.5827 11.5386 18.5825 11.5383C18.5146 11.4514 18.4041 11.4097 18.2956 11.4312C18.2956 11.4312 17.034 11.6801 16.6459 11.7419C13.4035 12.2582 11.3047 13.905 10.2299 16.7764C8.73162 20.7794 11.7013 23.865 13.5467 24.5558C15.3921 25.2465 19.658 24.8691 21.1563 20.8662C22.2263 18.0076 21.7249 15.3878 19.6238 12.8572ZM13.7512 24.0095C12.0904 23.3878 9.42074 20.6024 10.7763 16.9809C11.771 14.3235 13.7208 12.7982 16.7378 12.318C17.0405 12.2698 17.8679 12.1093 18.2325 12.038C18.4605 12.3308 18.9794 12.9943 19.175 13.2299C21.131 15.5852 21.6002 18.0163 20.61 20.6617C19.2269 24.3571 15.1981 24.5511 13.7512 24.0095Z" fill="#C4C4C4"/>
<path d="M20.3714 19.6358C20.6508 18.8892 20.4658 18.0599 19.9141 17.4984C19.9445 17.4374 19.9713 17.3766 19.9944 17.3147C20.389 16.2605 19.8523 15.0815 18.798 14.6869C18.7036 14.6515 18.6085 14.6253 18.5134 14.6071C18.4019 14.5873 18.2757 14.5124 18.2496 14.3694C18.1591 13.8717 18.0229 13.2897 18.0229 13.2897C17.9785 13.0997 17.7267 13.0055 17.5684 13.1196C17.5492 13.1334 17.097 13.4599 16.7243 13.7869C16.6076 13.8892 16.4557 13.8603 16.3516 13.8004C16.262 13.748 16.1675 13.7023 16.0664 13.6644C15.0122 13.2698 13.8332 13.8066 13.4386 14.8609C13.4154 14.9228 13.3956 14.9862 13.3785 15.0522C12.5938 15.1134 11.9097 15.6174 11.6302 16.364C11.4399 16.8724 11.4648 17.4341 11.6949 17.9301C11.641 18.0237 11.5975 18.1154 11.5631 18.2075C11.28 18.9637 11.4763 19.8124 12.0492 20.3742C11.8934 21.3274 12.4251 22.2673 13.3409 22.6101C13.6242 22.7161 13.9233 22.7548 14.2319 22.7258C14.4456 22.9503 14.6966 23.1175 14.9799 23.2235C15.8956 23.5663 16.9138 23.2066 17.4222 22.3853C18.2232 22.3378 18.9285 21.8266 19.2116 21.0703C19.246 20.9783 19.2734 20.8806 19.2943 20.7746C19.7935 20.5515 20.1811 20.1443 20.3714 19.6358ZM14.1412 22.136C13.9345 22.1502 13.7333 22.1341 13.5454 22.0637C12.8524 21.8043 12.4681 21.0638 12.6515 20.3414C12.6589 20.3122 12.6502 20.2838 12.6485 20.2547C12.6643 20.2334 12.6811 20.2128 12.6908 20.1867C12.7492 20.0307 12.8323 19.8875 12.9379 19.7616C13.0412 19.6381 13.0249 19.4541 12.9013 19.3507C12.7791 19.2481 12.5936 19.2635 12.4904 19.3873C12.4034 19.4912 12.331 19.6054 12.2665 19.7244C12.0107 19.3418 11.9436 18.8548 12.1094 18.412C12.1461 18.3138 12.1978 18.2172 12.2716 18.1077C12.334 18.0158 12.3386 17.8962 12.2835 17.7998C12.0654 17.418 12.0266 16.9692 12.1765 16.5685C12.362 16.0731 12.7993 15.731 13.3114 15.6507C13.3415 16.4493 13.841 17.1915 14.635 17.4887C14.786 17.5452 14.9539 17.4688 15.0104 17.3178C15.0669 17.1668 14.9905 16.9989 14.8395 16.9424C14.1903 16.6994 13.8185 16.0399 13.9081 15.3802C13.9082 15.3798 13.9084 15.3795 13.9084 15.3795C13.9245 15.2623 13.9495 15.1598 13.9849 15.0653C14.2667 14.3123 15.1088 13.9289 15.8619 14.2108C15.931 14.2366 15.9961 14.2683 16.0567 14.3038C16.4027 14.5056 16.8114 14.4777 17.1 14.231L14.1412 22.1359L14.1412 22.136ZM18.9359 20.2898C18.831 20.3263 18.756 20.4195 18.7427 20.5298C18.7264 20.6609 18.702 20.7676 18.6653 20.8658C18.4997 21.3081 18.1301 21.6312 17.6867 21.7522C17.8486 21.0188 17.5964 20.2421 17.0108 19.7493C16.8859 19.645 16.7034 19.6613 16.5998 19.7846C16.4961 19.9079 16.5118 20.092 16.6351 20.1956C17.106 20.5918 17.2773 21.2456 17.0729 21.7959L16.9894 21.9651C16.6535 22.6304 15.8774 22.9366 15.1843 22.6772C14.9964 22.6069 14.8341 22.4869 14.6875 22.3404L17.6608 14.3967C17.6657 14.4224 17.6711 14.4486 17.6757 14.4739C17.7407 14.8301 18.0276 15.1078 18.403 15.1798C18.4668 15.1922 18.5305 15.2096 18.5935 15.2332C19.3465 15.515 19.7299 16.3571 19.448 17.1102C19.4134 17.2026 19.3653 17.2946 19.3028 17.391C19.166 17.6021 18.9789 17.7773 18.7519 17.8943C18.6087 17.9681 18.5525 18.1442 18.6264 18.2874C18.661 18.3542 18.7178 18.4022 18.7835 18.4268C18.8579 18.4546 18.9433 18.4522 19.0195 18.4129C19.2285 18.305 19.4122 18.1602 19.57 17.9916C19.9048 18.3885 20.0108 18.9349 19.825 19.4313C19.6751 19.832 19.3511 20.145 18.9359 20.2898Z" fill="#C4C4C4"/>
</g>
</g>
<defs>
<clipPath id="clip0_1_1740">
<rect width="45" height="45" fill="white"/>
</clipPath>
<clipPath id="clip1_1_1740">
<rect width="14" height="14" fill="white" transform="translate(11.8984 8.99036) rotate(20.521)"/>
</clipPath>
</defs>
</svg>
