<svg width="9" height="11" viewBox="0 0 9 11" fill="none" xmlns="http://www.w3.org/2000/svg">
<path d="M4.50026 5.37972C5.72327 5.37972 6.71481 4.17544 6.71481 2.68988C6.71481 1.20428 6.38927 0 4.50026 0C2.61124 0 2.28564 1.20428 2.28564 2.68988C2.28564 4.17544 3.27718 5.37972 4.50026 5.37972Z" fill="#93B474"/>
<path d="M0.31733 9.48674C0.316953 9.39616 0.316575 9.46121 0.31733 9.48674V9.48674Z" fill="#93B474"/>
<path d="M8.68262 9.55762C8.68381 9.53282 8.68303 9.38558 8.68262 9.55762V9.55762Z" fill="#93B474"/>
<path d="M8.67823 9.37826C8.63722 6.79037 8.29924 6.05296 5.71288 5.58618C5.71288 5.58618 5.34881 6.0501 4.50024 6.0501C3.65167 6.0501 3.28754 5.58618 3.28754 5.58618C0.729411 6.04787 0.370874 6.77434 0.323731 9.29419C0.319866 9.49995 0.318074 9.51076 0.317383 9.48687C0.31754 9.53163 0.317728 9.61441 0.317728 9.75876C0.317728 9.75876 0.933477 11.0001 4.50024 11.0001C8.06695 11.0001 8.68276 9.75876 8.68276 9.75876C8.68276 9.66602 8.68282 9.60153 8.68292 9.55765C8.68223 9.57242 8.68084 9.54379 8.67823 9.37826Z" fill="#93B474"/>
</svg>
