<svg width="31" height="31" viewBox="0 0 31 31" fill="none" xmlns="http://www.w3.org/2000/svg">
<circle cx="15.5" cy="15.5" r="15.5" fill="#337D5A"/>
<g clip-path="url(#clip0_1_649)">
<path d="M12.1541 23.9995C11.9644 23.9996 11.8107 23.8454 11.8107 23.6558C11.8107 22.7904 11.8091 21.9236 11.8123 21.0583C11.8123 20.9597 11.7789 20.9027 11.6869 20.8704C11.5107 20.8073 11.3361 20.738 11.1567 20.681C10.0916 20.3454 9.35831 19.6463 8.84403 18.7071C8.56308 18.1913 8.39323 17.6385 8.26308 17.0719C8.05196 16.1543 7.97895 15.2243 8.00435 14.285C8.02181 13.6784 8.0726 13.0748 8.16625 12.4759C8.23927 12.0032 8.30593 11.5274 8.41546 11.0609C8.6726 9.97076 9.2853 9.10082 10.2091 8.43721C10.7758 8.03072 11.4059 7.74587 12.0726 7.53339C12.617 7.35941 13.1774 7.24547 13.744 7.15924C14.552 7.03607 15.3647 6.9791 16.1805 7.00527C16.6789 7.02221 17.1789 7.05762 17.6758 7.10535C18.3821 7.1731 19.0821 7.28396 19.7694 7.46103C20.4282 7.6304 21.0551 7.87367 21.6313 8.23089C22.6329 8.84985 23.2551 9.73211 23.5599 10.8376C23.752 11.5336 23.8789 12.2418 23.944 12.9594C24.0139 13.7277 24.0155 14.496 23.9678 15.2658C23.9393 15.7216 23.9028 16.1758 23.8218 16.6254C23.6647 17.5015 23.398 18.3407 22.9377 19.1136C22.5901 19.6956 22.0932 20.1375 21.4932 20.4716C20.9694 20.7626 20.4043 20.9489 19.8186 21.0767C19.3551 21.1784 18.8869 21.2384 18.4139 21.2754C17.3488 21.3554 16.2837 21.3878 15.2155 21.4155C15.1805 21.417 15.1345 21.4309 15.1123 21.4555C14.471 22.1361 13.7853 22.775 13.1075 23.4202C12.917 23.6019 12.725 23.7836 12.5297 23.9622C12.5075 23.9837 12.4694 23.9976 12.4377 23.9976C12.3434 23.999 12.2491 23.9994 12.1541 23.9995ZM12.5724 22.8051C12.5704 22.8331 12.606 22.8496 12.625 22.8289C12.852 22.6134 13.0821 22.4024 13.3059 22.1822C13.717 21.7788 14.125 21.3724 14.5297 20.9613C14.7123 20.7765 14.9313 20.6826 15.1901 20.6733C15.9456 20.6441 16.7012 20.621 17.4551 20.5917C18.0758 20.5671 18.6948 20.524 19.3075 20.4193C19.9043 20.3177 20.4805 20.1575 21.0186 19.8819C21.6186 19.5755 22.0853 19.1382 22.3901 18.5485C22.7488 17.8541 22.9758 17.1181 23.0948 16.3498C23.1869 15.7509 23.2218 15.1473 23.2345 14.5437C23.2535 13.7154 23.2028 12.8901 23.0583 12.0725C22.9789 11.6244 22.8821 11.181 22.7361 10.7499C22.498 10.0447 22.0837 9.45958 21.4647 9.01614C20.9694 8.66201 20.417 8.42027 19.8313 8.24628C19.3409 8.10155 18.8393 8.00763 18.3345 7.93218C17.8123 7.85519 17.2885 7.79515 16.7631 7.76435C16.0139 7.7197 15.2647 7.7274 14.517 7.80592C13.9345 7.86597 13.3583 7.95374 12.7916 8.09693C12.098 8.27092 11.4409 8.52497 10.8377 8.90528C9.95673 9.46112 9.38212 10.231 9.15831 11.2287C9.05514 11.6875 8.98847 12.1556 8.91546 12.6206C8.82815 13.1888 8.78054 13.76 8.76625 14.3328C8.7472 15.0287 8.78847 15.7216 8.90752 16.4083C8.99165 16.8902 9.10434 17.366 9.27577 17.8264C9.47736 18.3638 9.7599 18.8534 10.1837 19.2583C10.4805 19.5416 10.8123 19.7726 11.2139 19.9019C11.4536 19.9789 11.6885 20.0728 11.925 20.1637C12.098 20.2299 12.2583 20.3177 12.3789 20.4608C12.525 20.6333 12.5726 20.835 12.5726 21.0536C12.5726 21.6372 12.5726 22.2192 12.5726 22.8028C12.5725 22.8035 12.5725 22.8043 12.5724 22.8051Z" fill="white"/>
<path d="M18.4193 19.1945C18.2748 19.193 18.0971 19.1499 17.9256 19.079C16.7193 18.5832 15.6002 17.9458 14.5955 17.1267C13.6336 16.343 12.8304 15.4268 12.1669 14.3921C11.7796 13.7901 11.4844 13.148 11.2288 12.486C11.1796 12.3597 11.1129 12.2381 11.0875 12.1072C10.9685 11.4913 11.2034 11.0125 11.7129 10.6491C11.9368 10.4905 12.1907 10.392 12.4621 10.3381C12.7225 10.2857 12.9431 10.3735 13.1304 10.5444C13.5002 10.88 13.8193 11.2573 14.0844 11.6761C14.2082 11.8701 14.3209 12.0718 14.4272 12.275C14.586 12.5783 14.5304 12.8355 14.2669 13.0618C14.1669 13.1465 14.0606 13.225 13.959 13.3082C13.6114 13.5961 13.532 13.8825 13.7002 14.2951C13.951 14.9141 14.3431 15.4361 14.8637 15.8687C15.2621 16.1998 15.7098 16.4507 16.1939 16.6417C16.5368 16.7772 16.8352 16.6524 17.0447 16.3614C17.1415 16.2259 17.2415 16.0966 17.3828 16.0027C17.6431 15.8302 17.9209 15.8302 18.2066 15.9288C18.3987 15.995 18.5685 16.1028 18.7304 16.2198C19.1034 16.4892 19.4812 16.7556 19.8495 17.0312C20.0209 17.159 20.1495 17.3222 20.1828 17.5393C20.205 17.6948 20.1653 17.8411 20.1034 17.9828C19.8875 18.4662 19.5256 18.8142 19.0383 19.0405C18.7891 19.1622 18.6542 19.1945 18.4193 19.1945Z" fill="white"/>
<path d="M16.4639 9.58521C17.621 9.59136 18.6734 10.0286 19.5115 10.9232C20.0765 11.5283 20.4131 12.2428 20.5258 13.0526C20.5924 13.5238 20.5702 13.9934 20.4654 14.4584C20.4258 14.6355 20.3051 14.7479 20.1385 14.7617C19.9623 14.7756 19.7988 14.6863 19.7353 14.5416C19.7004 14.4599 19.7051 14.3768 19.7226 14.2921C19.9242 13.3283 19.7448 12.4383 19.1416 11.6453C18.5892 10.9201 17.84 10.4936 16.9194 10.3597C16.5004 10.2981 16.0861 10.3243 15.6718 10.4105C15.4686 10.4521 15.2861 10.3304 15.2416 10.1318C15.194 9.92702 15.3019 9.7438 15.5051 9.69452C15.7908 9.6237 16.0813 9.59444 16.4639 9.58521Z" fill="white"/>
<path d="M19.4 13.2035C19.4403 13.4804 19.4295 13.7632 19.3917 14.0404C19.3883 14.0647 19.3848 14.0891 19.3809 14.1135C19.3492 14.3137 19.1778 14.4276 18.9587 14.403C18.7555 14.3799 18.6159 14.2228 18.6301 14.0258C18.6397 13.8903 18.6651 13.7548 18.6666 13.6177C18.6778 12.6539 18.0397 11.8086 17.0889 11.5283C16.7539 11.4298 16.4111 11.4067 16.0651 11.4652C15.7095 11.5268 15.5508 11.2158 15.6206 10.9833C15.6619 10.8493 15.7587 10.7662 15.8984 10.7431C16.9381 10.5799 17.8381 10.857 18.5809 11.5807C19.0413 12.0287 19.3095 12.5769 19.4 13.2035Z" fill="white"/>
<path d="M16.413 11.8055C17.3368 11.8178 18.1384 12.503 18.2622 13.3806C18.2781 13.4961 18.2892 13.6162 18.2749 13.7301C18.2495 13.9272 18.0797 14.0396 17.8606 14.0227C17.6686 14.0088 17.5273 13.8656 17.5241 13.6747C17.5226 13.4437 17.467 13.2282 17.3321 13.0372C17.1019 12.7124 16.7813 12.5507 16.3749 12.543C16.2114 12.5399 16.0845 12.4752 16.0241 12.3244C15.9638 12.1719 15.9845 12.0287 16.1019 11.9071C16.1908 11.8193 16.3019 11.7993 16.413 11.8055Z" fill="white"/>
</g>
<defs>
<clipPath id="clip0_1_649">
<rect width="16" height="17" fill="white" transform="translate(8 7)"/>
</clipPath>
</defs>
</svg>
