<svg width="18" height="20" viewBox="0 0 18 20" fill="none" xmlns="http://www.w3.org/2000/svg">
<g clip-path="url(#clip0_1_1719)">
<path d="M17.1826 10.0839V7.27292C17.1826 6.31975 16.5172 5.54458 15.6764 5.46941L13.327 0.909827C13.1093 0.488129 12.7577 0.186727 12.3371 0.0615729C11.9184 -0.0627291 11.4805 0.00255401 11.1058 0.244894L3.05185 5.45475H1.63733C0.734874 5.45475 0.000976562 6.27015 0.000976562 7.27292V18.1818C0.000976562 19.1846 0.734835 20 1.63733 20H15.5462C16.4487 20 17.1826 19.1846 17.1826 18.1818V15.3709C17.6577 15.1826 18.0007 14.6828 18.0007 14.091V11.3638C18.0007 10.772 17.6577 10.2721 17.1826 10.0839ZM11.5177 1.03055C11.703 0.910253 11.9192 0.878293 12.1253 0.93957C12.3343 1.0017 12.5084 1.15174 12.6167 1.36169L13.4139 2.90876C13.0503 3.08833 12.6622 3.18208 12.2735 3.18208C11.3949 3.18208 10.5899 2.73903 10.0495 1.98026L11.5177 1.03055ZM9.3388 2.43997C10.0327 3.47943 11.101 4.09118 12.2735 4.09118C12.8043 4.09118 13.3306 3.95214 13.8195 3.69607L14.7257 5.4548H4.67796L9.3388 2.43997ZM16.3644 18.1818C16.3644 18.683 15.9972 19.0909 15.5462 19.0909H1.63733C1.18631 19.0909 0.819171 18.683 0.819171 18.1818V7.27292C0.819171 6.77179 1.18631 6.36386 1.63733 6.36386H15.5462C15.9972 6.36386 16.3644 6.77179 16.3644 7.27292V10.0002H13.9099C12.5563 10.0002 11.4553 11.2235 11.4553 12.7274C11.4553 14.2313 12.5563 15.4546 13.9099 15.4546H16.3644V18.1818V18.1818ZM17.1826 14.091C17.1826 14.3418 16.9992 14.5455 16.7735 14.5455H13.9099C13.0074 14.5455 12.2735 13.7301 12.2735 12.7274C12.2735 11.7247 13.0074 10.9092 13.9099 10.9092H16.7735C16.9992 10.9092 17.1826 11.1129 17.1826 11.3638V14.091V14.091Z" fill="white"/>
<path d="M13.909 11.8182C13.458 11.8182 13.0908 12.2262 13.0908 12.7273C13.0908 13.2284 13.458 13.6364 13.909 13.6364C14.36 13.6364 14.7271 13.2284 14.7271 12.7273C14.7272 12.2262 14.36 11.8182 13.909 11.8182Z" fill="white"/>
</g>
<defs>
<clipPath id="clip0_1_1719">
<rect width="18" height="20" fill="white"/>
</clipPath>
</defs>
</svg>
