<svg width="37" height="37" viewBox="0 0 37 37" fill="none" xmlns="http://www.w3.org/2000/svg">
<g clip-path="url(#clip0_1_1731)">
<path d="M33.3465 6.37253L22.051 0.255959C20.9795 -0.324446 19.5061 0.122019 18.9257 1.19353L12.318 13.4713H4.28168C3.25481 13.4713 2.45117 14.275 2.45117 15.3018V18.5164V35.1695C2.45117 36.1964 3.25481 37 4.28168 37H29.9534C30.9803 37 31.7839 36.1964 31.7839 35.1695V30.5263H32.5429C32.9447 30.5263 33.2573 30.2138 33.2573 29.8119V24.499C33.2573 24.0972 32.9447 23.7847 32.5429 23.7847H31.7839V18.561C31.7839 17.7127 31.1589 16.9537 30.3552 16.7752L34.2841 9.49778C34.8645 8.38162 34.4627 6.99758 33.3465 6.37253ZM25.3102 3.64909L18.256 16.7305H16.2469L23.7922 2.84546L25.3102 3.64909ZM20.2205 1.86323C20.4437 1.46141 20.9795 1.28283 21.3813 1.50606L22.4974 2.13111L14.6397 16.7305H12.1841L20.2205 1.86323ZM3.83521 15.2572C3.83521 15.1232 4.0138 14.9 4.23703 14.9H11.5144L10.5322 16.6859H4.23703C4.10309 16.6859 3.96915 16.6859 3.83521 16.7305V15.2572ZM30.3106 35.1695C30.3106 35.3928 30.132 35.5713 29.9088 35.5713H4.23703C4.0138 35.5713 3.83521 35.3928 3.83521 35.1695V18.561C3.83521 18.3378 4.0138 18.1592 4.23703 18.1592H10.9787H13.836H19.0597H29.1051H29.8641C30.0874 18.1592 30.2659 18.3378 30.2659 18.561V23.7847H27.5425C26.337 23.7847 25.3995 24.7669 25.3995 25.9277V28.3833C25.3995 29.5887 26.3817 30.5263 27.5425 30.5263H30.3106V35.1695ZM31.7393 25.2134H31.7839V29.0976H31.7393H27.5425C27.1407 29.0976 26.8282 28.7851 26.8282 28.3833V25.9277C26.8282 25.5259 27.1407 25.2134 27.5425 25.2134H31.7393ZM32.9894 8.78344L28.7033 16.7305H19.8633L26.5603 4.36344L32.6322 7.66728C33.0787 7.84586 33.2126 8.38162 32.9894 8.78344Z" fill="#C4C4C4"/>
<path d="M30.2656 8.11372L29.9085 7.93513C29.0155 7.44402 27.8101 7.80119 27.319 8.69412L26.8725 9.5424C26.6493 9.98887 26.56 10.5246 26.7386 11.0157C26.8725 11.5069 27.2297 11.9087 27.6761 12.1319L28.0333 12.3105C28.3012 12.4444 28.6137 12.5337 28.9262 12.5337C29.6406 12.5337 30.2656 12.1319 30.6228 11.5515L31.0693 10.7032C31.5157 9.76564 31.1586 8.60483 30.2656 8.11372ZM29.7745 10.0335L29.3281 10.8818C29.1941 11.105 28.8816 11.1943 28.6584 11.0604L28.3012 10.8372C28.2119 10.7925 28.1226 10.6586 28.078 10.5693C28.0333 10.4353 28.0333 10.3014 28.1226 10.2121L28.5691 9.36382C28.6584 9.22988 28.8369 9.09594 29.0155 9.09594C29.1048 9.09594 29.1495 9.09594 29.2388 9.14059L29.5959 9.31917C29.7745 9.49776 29.8638 9.76564 29.7745 10.0335Z" fill="#C4C4C4"/>
</g>
<defs>
<clipPath id="clip0_1_1731">
<rect width="37" height="37" fill="white"/>
</clipPath>
</defs>
</svg>
