<svg width="16" height="16" viewBox="0 0 16 16" fill="none" xmlns="http://www.w3.org/2000/svg">
<path d="M15.3764 12.6635C14.7988 13.3501 13.7325 13.6301 11.6961 13.6301H4.30379C2.22075 13.6301 1.13636 13.332 0.560981 12.6011C0 11.8884 0 10.8383 0 9.38502V6.615C0 3.79947 0.6656 2.36995 4.30379 2.36995H11.6961C13.4621 2.36995 14.4407 2.61707 15.0738 3.22295C15.723 3.84427 16 4.85872 16 6.615V9.38502C16 10.9177 15.9566 11.9739 15.3764 12.6635ZM10.2721 7.61758L6.91525 5.86321C6.84021 5.82398 6.75814 5.80453 6.67618 5.80453C6.58338 5.80453 6.49079 5.82951 6.40877 5.87916C6.25435 5.97273 6.16005 6.14011 6.16005 6.32066V9.81815C6.16005 9.99838 6.25409 10.1656 6.40821 10.2592C6.56237 10.3529 6.75412 10.3593 6.91406 10.2762L10.2709 8.53309C10.4417 8.44442 10.5489 8.26811 10.5492 8.07575C10.5494 7.88324 10.4426 7.70667 10.2721 7.61758Z" fill="#EFEFEF"/>
</svg>
